<?xml version="1.0" encoding="UTF-8" standalone="no"?><svg xmlns="http://www.w3.org/2000/svg" xmlns:xlink="http://www.w3.org/1999/xlink" contentScriptType="application/ecmascript" contentStyleType="text/css" height="448px" preserveAspectRatio="none" style="width:803px;height:448px;" version="1.1" viewBox="0 0 803 448" width="803px" zoomAndPan="magnify"><defs><filter height="300%" id="f1aut09qlvvl1b" width="300%" x="-1" y="-1"><feGaussianBlur result="blurOut" stdDeviation="2.0"/><feColorMatrix in="blurOut" result="blurOut2" type="matrix" values="0 0 0 0 0 0 0 0 0 0 0 0 0 0 0 0 0 0 .4 0"/><feOffset dx="4.0" dy="4.0" in="blurOut2" result="blurOut3"/><feBlend in="SourceGraphic" in2="blurOut3" mode="normal"/></filter></defs><g><text fill="#000000" font-family="sans-serif" font-size="18" lengthAdjust="spacing" textLength="294" x="248.1373" y="16.708">Bare-metal Deployment Diagram</text><!--MD5=[99b6a5be70e906565c8b01633213767d]
cluster supervisord--><polygon fill="#FFFFFF" filter="url(#f1aut09qlvvl1b)" points="127.2746,36.9531,137.2746,26.9531,559.2746,26.9531,559.2746,102.9531,549.2746,112.9531,127.2746,112.9531,127.2746,36.9531" style="stroke:#000000;stroke-width:1.5;"/><line style="stroke:#000000;stroke-width:1.5;" x1="549.2746" x2="559.2746" y1="36.9531" y2="26.9531"/><line style="stroke:#000000;stroke-width:1.5;" x1="127.2746" x2="549.2746" y1="36.9531" y2="36.9531"/><line style="stroke:#000000;stroke-width:1.5;" x1="549.2746" x2="549.2746" y1="36.9531" y2="112.9531"/><text fill="#000000" font-family="sans-serif" font-size="14" font-weight="bold" lengthAdjust="spacing" textLength="95" x="291.7746" y="52.9482">supervisord</text><!--MD5=[3784ce98b1e0962d344f1152fa059ebf]
entity python_uwsgi--><rect fill="#ADD8E6" filter="url(#f1aut09qlvvl1b)" height="46.2969" style="stroke:#A80036;stroke-width:1.5;" width="135" x="135.7746" y="58.9531"/><rect fill="#ADD8E6" height="10" style="stroke:#A80036;stroke-width:1.5;" width="15" x="250.7746" y="63.9531"/><rect fill="#ADD8E6" height="2" style="stroke:#A80036;stroke-width:1.5;" width="4" x="248.7746" y="65.9531"/><rect fill="#ADD8E6" height="2" style="stroke:#A80036;stroke-width:1.5;" width="4" x="248.7746" y="69.9531"/><text fill="#000000" font-family="sans-serif" font-size="14" lengthAdjust="spacing" textLength="95" x="150.7746" y="91.9482">python_uwsgi</text><!--MD5=[b1a7855e6585e68a7a22c3cffb63dc0f]
entity webhook--><rect fill="#ADD8E6" filter="url(#f1aut09qlvvl1b)" height="46.2969" style="stroke:#A80036;stroke-width:1.5;" width="104" x="306.2746" y="58.9531"/><rect fill="#ADD8E6" height="10" style="stroke:#A80036;stroke-width:1.5;" width="15" x="390.2746" y="63.9531"/><rect fill="#ADD8E6" height="2" style="stroke:#A80036;stroke-width:1.5;" width="4" x="388.2746" y="65.9531"/><rect fill="#ADD8E6" height="2" style="stroke:#A80036;stroke-width:1.5;" width="4" x="388.2746" y="69.9531"/><text fill="#000000" font-family="sans-serif" font-size="14" lengthAdjust="spacing" textLength="64" x="321.2746" y="91.9482">webhook</text><!--MD5=[9d405d8effad5e49cd59cd921525e124]
entity datasette--><rect fill="#ADD8E6" filter="url(#f1aut09qlvvl1b)" height="46.2969" style="stroke:#A80036;stroke-width:1.5;" width="106" x="445.2746" y="58.9531"/><rect fill="#ADD8E6" height="10" style="stroke:#A80036;stroke-width:1.5;" width="15" x="531.2746" y="63.9531"/><rect fill="#ADD8E6" height="2" style="stroke:#A80036;stroke-width:1.5;" width="4" x="529.2746" y="65.9531"/><rect fill="#ADD8E6" height="2" style="stroke:#A80036;stroke-width:1.5;" width="4" x="529.2746" y="69.9531"/><text fill="#000000" font-family="sans-serif" font-size="14" lengthAdjust="spacing" textLength="66" x="460.2746" y="91.9482">datasette</text><!--MD5=[8824c66cba45be527cf3dd56bcd70cd2]
entity nginx--><polygon fill="#FFFFFF" filter="url(#f1aut09qlvvl1b)" points="463.7746,191.9531,473.7746,181.9531,684.7746,181.9531,684.7746,283.4375,674.7746,293.4375,463.7746,293.4375,463.7746,191.9531" style="stroke:#000000;stroke-width:1.5;"/><line style="stroke:#000000;stroke-width:1.5;" x1="674.7746" x2="684.7746" y1="191.9531" y2="181.9531"/><line style="stroke:#000000;stroke-width:1.5;" x1="463.7746" x2="674.7746" y1="191.9531" y2="191.9531"/><line style="stroke:#000000;stroke-width:1.5;" x1="674.7746" x2="674.7746" y1="191.9531" y2="293.4375"/><text fill="#000000" font-family="sans-serif" font-size="14" font-weight="bold" lengthAdjust="spacing" textLength="43" x="478.7746" y="214.9482">nginx</text><text fill="#000000" font-family="sans-serif" font-size="14" lengthAdjust="spacing" textLength="97" x="478.7746" y="231.2451">alexbilson.dev</text><text fill="#000000" font-family="sans-serif" font-size="14" font-style="italic" lengthAdjust="spacing" textLength="32" x="579.7746" y="231.2451">:443</text><text fill="#000000" font-family="sans-serif" font-size="14" lengthAdjust="spacing" textLength="128" x="478.7746" y="247.542">pub.alexbilson.dev</text><text fill="#000000" font-family="sans-serif" font-size="14" font-style="italic" lengthAdjust="spacing" textLength="41" x="610.7746" y="247.542">:8001</text><text fill="#000000" font-family="sans-serif" font-size="14" lengthAdjust="spacing" textLength="136" x="478.7746" y="263.8389">hook.alexbilson.dev</text><text fill="#000000" font-family="sans-serif" font-size="14" font-style="italic" lengthAdjust="spacing" textLength="41" x="618.7746" y="263.8389">:9001</text><text fill="#000000" font-family="sans-serif" font-size="14" lengthAdjust="spacing" textLength="131" x="478.7746" y="280.1357">data.alexbilson.dev</text><text fill="#000000" font-family="sans-serif" font-size="14" font-style="italic" lengthAdjust="spacing" textLength="41" x="613.7746" y="280.1357">:7001</text><!--MD5=[ae826d22571cd783223c569f5da65001]
entity chaos_source--><polygon fill="#D2B48C" filter="url(#f1aut09qlvvl1b)" points="111.7746,201.4531,157.7746,201.4531,164.7746,222.4531,298.7746,222.4531,298.7746,273.3438,111.7746,273.3438,111.7746,201.4531" style="stroke:#000000;stroke-width:1.5;"/><line style="stroke:#000000;stroke-width:1.5;" x1="111.7746" x2="164.7746" y1="222.4531" y2="222.4531"/><text fill="#000000" font-family="sans-serif" font-size="14" lengthAdjust="spacing" textLength="108" x="121.7746" y="242.4482">chaos_content/</text><text fill="#000000" font-family="sans-serif" font-size="14" lengthAdjust="spacing" textLength="157" x="121.7746" y="258.7451">themes/chaos_theme/</text><!--MD5=[6efb4afd612182dcdbaf5716d5c1cddd]
entity chaos_site--><polygon fill="#D2B48C" filter="url(#f1aut09qlvvl1b)" points="334.2746,369.9531,380.2746,369.9531,387.2746,390.9531,466.2746,390.9531,466.2746,441.8438,334.2746,441.8438,334.2746,369.9531" style="stroke:#000000;stroke-width:1.5;"/><line style="stroke:#000000;stroke-width:1.5;" x1="334.2746" x2="387.2746" y1="390.9531" y2="390.9531"/><text fill="#000000" font-family="sans-serif" font-size="14" lengthAdjust="spacing" textLength="102" x="344.2746" y="410.9482">alexbilson.dev/</text><text fill="#000000" font-family="sans-serif" font-size="14" lengthAdjust="spacing" textLength="71" x="344.2746" y="427.2451">datasette/</text><!--MD5=[53a7890647be042c111b8a807eed420f]
entity internet--><path d="M541.6734,392.7791 C544.2384,386.7424 548.2086,386.1617 553.0511,390.2096 C556.547,385.4053 561.7086,384.2738 564.6797,390.7506 C566.4947,385.3854 571.0553,385.1601 574.5169,388.9887 C578.0756,384.961 583.8161,384.6312 585.7138,390.8108 C589.1522,386.0376 593.4805,384.889 597.0343,390.6871 C601.5484,385.2138 605.0632,385.7542 608.3588,391.877 C617.4479,394.5049 620.8187,398.8364 615.6971,407.9517 C621.3949,414.8914 617.124,422.1649 609.2261,423.4154 C607.0862,428.8553 603.0965,430.374 598.3953,426.3453 C595.2161,431.9539 590.8604,432.6871 586.3318,427.913 C584.8055,434.0367 580.7506,436.7376 574.9952,432.573 C569.8184,436.6116 566.0804,434.3804 564.9052,428.5017 C559.5647,432.9332 555.0454,432.5499 552.2104,425.6857 C548.1714,429.2678 544.0568,427.9824 542.3869,422.976 C533.8431,419.349 533.0871,412.5245 539.2499,406.155 C533.0631,400.3806 533.5592,395.9624 541.6734,392.7791 " fill="#FFFFFF" filter="url(#f1aut09qlvvl1b)" style="stroke:#000000;stroke-width:1.5;"/><text fill="#000000" font-family="sans-serif" font-size="14" lengthAdjust="spacing" textLength="54" x="547.2746" y="410.9482">internet</text><!--MD5=[d3adf7d6ff09955927be0cc854240772]
link webhook to chaos_source--><path d="M335.369,105.233 C311.4347,129.5584 273.4347,168.1793 244.6702,197.4138 " fill="none" id="webhook-to-chaos_source" style="stroke:#A80036;stroke-width:1.0;"/><rect fill="#FFFFFF" height="10" style="stroke:#A80036;stroke-width:1.5;" width="10" x="235.8538" y="196.2926"/><text fill="#000000" font-family="sans-serif" font-size="13" lengthAdjust="spacing" textLength="30" x="306.2746" y="148.02">uses</text><!--MD5=[cd2cc30bbf20a7f0bf3c5ec98a04b52b]
link python_uwsgi to chaos_source--><path d="M143.4851,105.0974 C123.8832,116.638 108.9926,132.3589 117.2746,151.9531 C124.5519,169.1702 137.1797,184.6299 150.635,197.514 " fill="none" id="python_uwsgi-to-chaos_source" style="stroke:#A80036;stroke-width:1.0;"/><rect fill="#FFFFFF" height="10" style="stroke:#A80036;stroke-width:1.5;" width="10" x="149.4483" y="196.0791"/><text fill="#000000" font-family="sans-serif" font-size="13" lengthAdjust="spacing" textLength="30" x="118.2746" y="148.02">uses</text><!--MD5=[ff593f4cbb68f58ce826fc1f68007427]
link webhook to chaos_site--><path d="M361.2615,104.9946 C368.2935,159.2415 385.9719,295.6177 394.9153,364.6095 " fill="none" id="webhook-to-chaos_site" style="stroke:#A80036;stroke-width:1.0;"/><rect fill="#FFFFFF" height="10" style="stroke:#A80036;stroke-width:1.5;" width="10" x="390.5961" y="364.8617"/><text fill="#000000" font-family="sans-serif" font-size="13" lengthAdjust="spacing" textLength="57" x="386.2746" y="242.02">compiles</text><!--MD5=[92166668b18ba8b7281645f573521931]
link python_uwsgi to chaos_site--><path d="M135.6511,102.9382 C98.6179,118.3572 56.1219,143.4485 35.2746,181.9531 C11.7861,225.3359 6,253.2445 35.2746,292.9531 C70.3209,340.4905 233.203,376.5676 329.1297,394.1282 " fill="none" id="python_uwsgi-to-chaos_site" style="stroke:#A80036;stroke-width:1.0;"/><rect fill="#FFFFFF" height="10" style="stroke:#A80036;stroke-width:1.5;" width="10" x="329.2134" y="390.053"/><text fill="#000000" font-family="sans-serif" font-size="13" lengthAdjust="spacing" textLength="57" x="36.2746" y="242.02">compiles</text><!--MD5=[40a5fb60eb9d5a3f31c56e045c91c695]
link nginx to chaos_site--><path d="M516.8183,293.0933 C492.2079,316.9257 464.0185,344.2241 441.5288,366.0029 " fill="none" id="nginx-to-chaos_site" style="stroke:#A80036;stroke-width:1.0;"/><rect fill="#FFFFFF" height="10" style="stroke:#A80036;stroke-width:1.5;" width="10" x="432.6846" y="364.7256"/><text fill="#000000" font-family="sans-serif" font-size="13" lengthAdjust="spacing" textLength="42" x="482.2746" y="336.02">serves</text><!--MD5=[1278ef50f2de32ddb9ef8ea0d4883341]
link datasette to chaos_site--><path d="M551.4201,93.0166 C599.0051,105.8781 666.6111,132.0537 702.2746,181.9531 C743.7427,239.974 777.0889,286.153 730.2746,339.9531 C698.6079,376.3452 562.3419,359.378 515.2746,369.9531 C500.8787,373.1876 485.6865,377.3722 471.2294,381.738 " fill="none" id="datasette-to-chaos_site" style="stroke:#A80036;stroke-width:1.0;"/><rect fill="#FFFFFF" height="10" style="stroke:#A80036;stroke-width:1.5;" width="10" x="461.3569" y="378.2244"/><text fill="#000000" font-family="sans-serif" font-size="13" lengthAdjust="spacing" textLength="42" x="753.2746" y="242.02">serves</text><!--MD5=[c7769113abcb26f229310b478b3bf979]
link datasette to nginx--><path d="M509.6526,105.233 C518.9305,124.2161 532.4633,151.905 544.7504,177.0451 " fill="none" id="datasette-to-nginx" style="stroke:#A80036;stroke-width:1.0;stroke-dasharray:7.0,7.0;"/><polygon fill="#A80036" points="547.0289,181.707,546.6706,171.8647,544.8333,177.2149,539.4831,175.3776,547.0289,181.707" style="stroke:#A80036;stroke-width:1.0;"/><text fill="#000000" font-family="sans-serif" font-size="13" lengthAdjust="spacing" textLength="80" x="532.2746" y="148.02">0.0.0.0:7001</text><!--MD5=[eb540fde65f1dd007bdd6d2cb6e32844]
link python_uwsgi to nginx--><path d="M195.2449,105.1641 C191.6146,120.2835 190.2679,139.452 201.2746,151.9531 C236.0642,191.4663 385.3267,168.6899 436.2746,181.9531 C443.5843,183.856 451.0252,186.0486 458.4718,188.4399 " fill="none" id="python_uwsgi-to-nginx" style="stroke:#A80036;stroke-width:1.0;stroke-dasharray:7.0,7.0;"/><polygon fill="#A80036" points="463.6266,190.126,456.3161,183.5263,458.8744,188.5716,453.829,191.1299,463.6266,190.126" style="stroke:#A80036;stroke-width:1.0;"/><text fill="#000000" font-family="sans-serif" font-size="13" lengthAdjust="spacing" textLength="80" x="202.2746" y="148.02">0.0.0.0:8001</text><!--MD5=[d58bfd3ae544d23a981e647f0c0af149]
link webhook to nginx--><path d="M381.1888,105.276 C395.7562,119.5279 415.3715,137.6931 434.2746,151.9531 C446.5308,161.1988 459.8329,170.3418 473.1972,179.0154 " fill="none" id="webhook-to-nginx" style="stroke:#A80036;stroke-width:1.0;stroke-dasharray:7.0,7.0;"/><polygon fill="#A80036" points="477.7304,181.9384,472.3344,173.6993,473.5283,179.2287,467.9989,180.4227,477.7304,181.9384" style="stroke:#A80036;stroke-width:1.0;"/><text fill="#000000" font-family="sans-serif" font-size="13" lengthAdjust="spacing" textLength="80" x="435.2746" y="148.02">0.0.0.0:9001</text><!--MD5=[482b91ab81a4a6849ec52a22fbd6df90]
link nginx to internet--><path d="M574.2746,293.0933 C574.2746,321.4334 574.2746,354.6745 574.2746,377.7076 " fill="none" id="nginx-to-internet" style="stroke:#A80036;stroke-width:1.0;stroke-dasharray:7.0,7.0;"/><polygon fill="#A80036" points="574.2746,382.7518,578.2746,373.7518,574.2746,377.7518,570.2746,373.7518,574.2746,382.7518" style="stroke:#A80036;stroke-width:1.0;"/><text fill="#000000" font-family="sans-serif" font-size="13" lengthAdjust="spacing" textLength="146" x="575.2746" y="336.02">https://*.alexbilson.dev</text><!--MD5=[e5a0ad6cf5b8313b32813fea3988c3b3]
@startuml
'
title Bare-metal Deployment Diagram

skinparam nodeBackgroundColor #white
skinparam componentBackgroundColor #lightBlue
skinparam folderBackgroundColor #tan
skinparam cloudBackgroundColor #white

node supervisord {
  component python_uwsgi
  component webhook
  component datasette
}

node nginx [
  <b>nginx
  alexbilson.dev <i>:443
  pub.alexbilson.dev <i>:8001
  hook.alexbilson.dev <i>:9001
  data.alexbilson.dev <i>:7001
]

folder chaos_source [
  chaos_content/
  themes/chaos_theme/
]

folder chaos_site [
  alexbilson.dev/
  datasette/
]

cloud internet

' Relationships

webhook - -# chaos_source : uses
python_uwsgi - -# chaos_source : uses
webhook - -# chaos_site : compiles
python_uwsgi - -# chaos_site : compiles
nginx - -# chaos_site : serves
datasette - -# chaos_site : serves

' Network

datasette ..> nginx : 0.0.0.0:7001
python_uwsgi ..> nginx : 0.0.0.0:8001
webhook ..> nginx : 0.0.0.0:9001

nginx ..> internet : https://*.alexbilson.dev
@enduml

@startuml
title Bare-metal Deployment Diagram

skinparam nodeBackgroundColor #white
skinparam componentBackgroundColor #lightBlue
skinparam folderBackgroundColor #tan
skinparam cloudBackgroundColor #white

node supervisord {
  component python_uwsgi
  component webhook
  component datasette
}

node nginx [
  <b>nginx
  alexbilson.dev <i>:443
  pub.alexbilson.dev <i>:8001
  hook.alexbilson.dev <i>:9001
  data.alexbilson.dev <i>:7001
]

folder chaos_source [
  chaos_content/
  themes/chaos_theme/
]

folder chaos_site [
  alexbilson.dev/
  datasette/
]

cloud internet


webhook - -# chaos_source : uses
python_uwsgi - -# chaos_source : uses
webhook - -# chaos_site : compiles
python_uwsgi - -# chaos_site : compiles
nginx - -# chaos_site : serves
datasette - -# chaos_site : serves


datasette ..> nginx : 0.0.0.0:7001
python_uwsgi ..> nginx : 0.0.0.0:8001
webhook ..> nginx : 0.0.0.0:9001

nginx ..> internet : https://*.alexbilson.dev
@enduml

PlantUML version 1.2021.00(Sun Jan 10 10:25:05 UTC 2021)
(GPL source distribution)
Java Runtime: OpenJDK Runtime Environment
JVM: OpenJDK 64-Bit Server VM
Default Encoding: UTF-8
Language: en
Country: null
--></g></svg>