<svg xmlns="http://www.w3.org/2000/svg" xmlns:xlink="http://www.w3.org/1999/xlink" version="1.1" class="marks" width="584" height="254" viewBox="0 0 584 254"><rect width="584" height="254" fill="#f9f9f9"/><g fill="none" stroke-miterlimit="10" transform="translate(34,10)"><g class="mark-group role-frame root" role="graphics-object" aria-roledescription="group mark container"><g transform="translate(0,0)"><path class="background" aria-hidden="true" d="M0.5,0.5h480v200h-480Z" stroke="#ddd"/><g><g class="mark-group role-axis" aria-hidden="true"><g transform="translate(0.5,0.5)"><path class="background" aria-hidden="true" d="M0,0h0v0h0Z" pointer-events="none"/><g><g class="mark-rule role-axis-grid" pointer-events="none"><line transform="translate(0,200)" x2="480" y2="0" stroke="#ddd" stroke-width="0.2" opacity="1"/><line transform="translate(0,150)" x2="480" y2="0" stroke="#ddd" stroke-width="0.2" opacity="1"/><line transform="translate(0,100)" x2="480" y2="0" stroke="#ddd" stroke-width="0.2" opacity="1"/><line transform="translate(0,50)" x2="480" y2="0" stroke="#ddd" stroke-width="0.2" opacity="1"/><line transform="translate(0,0)" x2="480" y2="0" stroke="#ddd" stroke-width="0.2" opacity="1"/></g></g><path class="foreground" aria-hidden="true" d="" pointer-events="none" display="none"/></g></g><g class="mark-group role-axis" role="graphics-symbol" aria-roledescription="axis" aria-label="X-axis titled 'age' for a discrete scale with 24 values: 12, 18, 19, 20, 21, ending with 40"><g transform="translate(0.5,200.5)"><path class="background" aria-hidden="true" d="M0,0h0v0h0Z" pointer-events="none"/><g><g class="mark-rule role-axis-tick" pointer-events="none"><line transform="translate(10,0)" x2="0" y2="10" stroke="#979797" stroke-width="0.2" opacity="1"/><line transform="translate(30,0)" x2="0" y2="10" stroke="#979797" stroke-width="0.2" opacity="1"/><line transform="translate(50,0)" x2="0" y2="10" stroke="#979797" stroke-width="0.2" opacity="1"/><line transform="translate(70,0)" x2="0" y2="10" stroke="#979797" stroke-width="0.2" opacity="1"/><line transform="translate(90,0)" x2="0" y2="10" stroke="#979797" stroke-width="0.2" opacity="1"/><line transform="translate(110,0)" x2="0" y2="10" stroke="#979797" stroke-width="0.2" opacity="1"/><line transform="translate(130,0)" x2="0" y2="10" stroke="#979797" stroke-width="0.2" opacity="1"/><line transform="translate(150,0)" x2="0" y2="10" stroke="#979797" stroke-width="0.2" opacity="1"/><line transform="translate(170,0)" x2="0" y2="10" stroke="#979797" stroke-width="0.2" opacity="1"/><line transform="translate(190,0)" x2="0" y2="10" stroke="#979797" stroke-width="0.2" opacity="1"/><line transform="translate(210,0)" x2="0" y2="10" stroke="#979797" stroke-width="0.2" opacity="1"/><line transform="translate(230,0)" x2="0" y2="10" stroke="#979797" stroke-width="0.2" opacity="1"/><line transform="translate(250,0)" x2="0" y2="10" stroke="#979797" stroke-width="0.2" opacity="1"/><line transform="translate(270,0)" x2="0" y2="10" stroke="#979797" stroke-width="0.2" opacity="1"/><line transform="translate(290,0)" x2="0" y2="10" stroke="#979797" stroke-width="0.2" opacity="1"/><line transform="translate(310,0)" x2="0" y2="10" stroke="#979797" stroke-width="0.2" opacity="1"/><line transform="translate(330,0)" x2="0" y2="10" stroke="#979797" stroke-width="0.2" opacity="1"/><line transform="translate(350,0)" x2="0" y2="10" stroke="#979797" stroke-width="0.2" opacity="1"/><line transform="translate(370,0)" x2="0" y2="10" stroke="#979797" stroke-width="0.2" opacity="1"/><line transform="translate(390,0)" x2="0" y2="10" stroke="#979797" stroke-width="0.2" opacity="1"/><line transform="translate(410,0)" x2="0" y2="10" stroke="#979797" stroke-width="0.2" opacity="1"/><line transform="translate(430,0)" x2="0" y2="10" stroke="#979797" stroke-width="0.2" opacity="1"/><line transform="translate(450,0)" x2="0" y2="10" stroke="#979797" stroke-width="0.2" opacity="1"/><line transform="translate(470,0)" x2="0" y2="10" stroke="#979797" stroke-width="0.2" opacity="1"/></g><g class="mark-text role-axis-label" pointer-events="none"><text text-anchor="end" transform="translate(9.5,12) rotate(270) translate(0,3)" font-family="sans-serif" font-size="10px" fill="#979797" opacity="1">12</text><text text-anchor="end" transform="translate(29.5,12) rotate(270) translate(0,3)" font-family="sans-serif" font-size="10px" fill="#979797" opacity="1">18</text><text text-anchor="end" transform="translate(49.5,12) rotate(270) translate(0,3)" font-family="sans-serif" font-size="10px" fill="#979797" opacity="1">19</text><text text-anchor="end" transform="translate(69.5,12) rotate(270) translate(0,3)" font-family="sans-serif" font-size="10px" fill="#979797" opacity="1">20</text><text text-anchor="end" transform="translate(89.5,12) rotate(270) translate(0,3)" font-family="sans-serif" font-size="10px" fill="#979797" opacity="1">21</text><text text-anchor="end" transform="translate(109.5,12) rotate(270) translate(0,3)" font-family="sans-serif" font-size="10px" fill="#979797" opacity="1">22</text><text text-anchor="end" transform="translate(129.5,12) rotate(270) translate(0,3)" font-family="sans-serif" font-size="10px" fill="#979797" opacity="1">23</text><text text-anchor="end" transform="translate(149.5,12) rotate(270) translate(0,3)" font-family="sans-serif" font-size="10px" fill="#979797" opacity="1">24</text><text text-anchor="end" transform="translate(169.5,12) rotate(270) translate(0,3)" font-family="sans-serif" font-size="10px" fill="#979797" opacity="1">25</text><text text-anchor="end" transform="translate(189.5,12) rotate(270) translate(0,3)" font-family="sans-serif" font-size="10px" fill="#979797" opacity="1">26</text><text text-anchor="end" transform="translate(209.5,12) rotate(270) translate(0,3)" font-family="sans-serif" font-size="10px" fill="#979797" opacity="1">27</text><text text-anchor="end" transform="translate(229.5,12) rotate(270) translate(0,3)" font-family="sans-serif" font-size="10px" fill="#979797" opacity="1">28</text><text text-anchor="end" transform="translate(249.5,12) rotate(270) translate(0,3)" font-family="sans-serif" font-size="10px" fill="#979797" opacity="1">29</text><text text-anchor="end" transform="translate(269.5,12) rotate(270) translate(0,3)" font-family="sans-serif" font-size="10px" fill="#979797" opacity="1">30</text><text text-anchor="end" transform="translate(289.5,12) rotate(270) translate(0,3)" font-family="sans-serif" font-size="10px" fill="#979797" opacity="1">31</text><text text-anchor="end" transform="translate(309.5,12) rotate(270) translate(0,3)" font-family="sans-serif" font-size="10px" fill="#979797" opacity="1">32</text><text text-anchor="end" transform="translate(329.5,12) rotate(270) translate(0,3)" font-family="sans-serif" font-size="10px" fill="#979797" opacity="1">33</text><text text-anchor="end" transform="translate(349.5,12) rotate(270) translate(0,3)" font-family="sans-serif" font-size="10px" fill="#979797" opacity="1">34</text><text text-anchor="end" transform="translate(369.5,12) rotate(270) translate(0,3)" font-family="sans-serif" font-size="10px" fill="#979797" opacity="1">35</text><text text-anchor="end" transform="translate(389.5,12) rotate(270) translate(0,3)" font-family="sans-serif" font-size="10px" fill="#979797" opacity="1">36</text><text text-anchor="end" transform="translate(409.5,12) rotate(270) translate(0,3)" font-family="sans-serif" font-size="10px" fill="#979797" opacity="1">37</text><text text-anchor="end" transform="translate(429.5,12) rotate(270) translate(0,3)" font-family="sans-serif" font-size="10px" fill="#979797" opacity="1">38</text><text text-anchor="end" transform="translate(449.5,12) rotate(270) translate(0,3)" font-family="sans-serif" font-size="10px" fill="#979797" opacity="1">39</text><text text-anchor="end" transform="translate(469.5,12) rotate(270) translate(0,3)" font-family="sans-serif" font-size="10px" fill="#979797" opacity="1">40</text></g><g class="mark-rule role-axis-domain" pointer-events="none"><line transform="translate(0,0)" x2="480" y2="0" stroke="#979797" stroke-width="0.5" opacity="1"/></g><g class="mark-text role-axis-title" pointer-events="none"><text text-anchor="middle" transform="translate(240,36.13333320617676)" font-family="sans-serif" font-size="11px" font-weight="bold" fill="#979797" opacity="1">age</text></g></g><path class="foreground" aria-hidden="true" d="" pointer-events="none" display="none"/></g></g><g class="mark-group role-axis" role="graphics-symbol" aria-roledescription="axis" aria-label="Y-axis titled 'count' for a linear scale with values from 0 to 20"><g transform="translate(0.5,0.5)"><path class="background" aria-hidden="true" d="M0,0h0v0h0Z" pointer-events="none"/><g><g class="mark-rule role-axis-tick" pointer-events="none"><line transform="translate(0,200)" x2="0" y2="0" stroke="#979797" stroke-width="0.2" opacity="1"/><line transform="translate(0,150)" x2="0" y2="0" stroke="#979797" stroke-width="0.2" opacity="1"/><line transform="translate(0,100)" x2="0" y2="0" stroke="#979797" stroke-width="0.2" opacity="1"/><line transform="translate(0,50)" x2="0" y2="0" stroke="#979797" stroke-width="0.2" opacity="1"/><line transform="translate(0,0)" x2="0" y2="0" stroke="#979797" stroke-width="0.2" opacity="1"/></g><g class="mark-text role-axis-label" pointer-events="none"><text text-anchor="end" transform="translate(-2,203)" font-family="sans-serif" font-size="10px" fill="#979797" opacity="1">0</text><text text-anchor="end" transform="translate(-2,153)" font-family="sans-serif" font-size="10px" fill="#979797" opacity="1">5</text><text text-anchor="end" transform="translate(-2,103)" font-family="sans-serif" font-size="10px" fill="#979797" opacity="1">10</text><text text-anchor="end" transform="translate(-2,53)" font-family="sans-serif" font-size="10px" fill="#979797" opacity="1">15</text><text text-anchor="end" transform="translate(-2,3)" font-family="sans-serif" font-size="10px" fill="#979797" opacity="1">20</text></g><g class="mark-text role-axis-title" pointer-events="none"><text text-anchor="middle" transform="translate(-17.133333206176758,100) rotate(-90) translate(0,-2)" font-family="sans-serif" font-size="11px" font-weight="bold" fill="#979797" opacity="1">count</text></g></g><path class="foreground" aria-hidden="true" d="" pointer-events="none" display="none"/></g></g><g class="mark-rect role-mark marks" role="graphics-object" aria-roledescription="rect mark container"><path aria-label="age: 20; count: 1; _tooltip_summary: age: 20, count: 1, race: Asian; race: Asian" role="graphics-symbol" aria-roledescription="bar" d="M61,170h18v10h-18Z" fill="yellow"/><path aria-label="age: 33; count: 1; _tooltip_summary: age: 33, count: 1, race: Asian; race: Asian" role="graphics-symbol" aria-roledescription="bar" d="M321,180h18v10h-18Z" fill="yellow"/><path aria-label="age: 37; count: 1; _tooltip_summary: age: 37, count: 1, race: Asian; race: Asian" role="graphics-symbol" aria-roledescription="bar" d="M401,120h18v10h-18Z" fill="yellow"/><path aria-label="age: 18; count: 2; _tooltip_summary: age: 18, count: 2, race: Black; race: Black" role="graphics-symbol" aria-roledescription="bar" d="M21,180h18v20h-18Z" fill="red"/><path aria-label="age: 19; count: 1; _tooltip_summary: age: 19, count: 1, race: Black; race: Black" role="graphics-symbol" aria-roledescription="bar" d="M41,190h18v10h-18Z" fill="red"/><path aria-label="age: 20; count: 1; _tooltip_summary: age: 20, count: 1, race: Black; race: Black" role="graphics-symbol" aria-roledescription="bar" d="M61,180h18v10h-18Z" fill="red"/><path aria-label="age: 21; count: 1; _tooltip_summary: age: 21, count: 1, race: Black; race: Black" role="graphics-symbol" aria-roledescription="bar" d="M81,190h18v10h-18Z" fill="red"/><path aria-label="age: 22; count: 1; _tooltip_summary: age: 22, count: 1, race: Black; race: Black" role="graphics-symbol" aria-roledescription="bar" d="M101,180h18v10h-18Z" fill="red"/><path aria-label="age: 23; count: 2; _tooltip_summary: age: 23, count: 2, race: Black; race: Black" role="graphics-symbol" aria-roledescription="bar" d="M121,180h18v20h-18Z" fill="red"/><path aria-label="age: 25; count: 1; _tooltip_summary: age: 25, count: 1, race: Black; race: Black" role="graphics-symbol" aria-roledescription="bar" d="M161,180h18v10h-18Z" fill="red"/><path aria-label="age: 27; count: 1; _tooltip_summary: age: 27, count: 1, race: Black; race: Black" role="graphics-symbol" aria-roledescription="bar" d="M201,190h18v10h-18Z" fill="red"/><path aria-label="age: 28; count: 2; _tooltip_summary: age: 28, count: 2, race: Black; race: Black" role="graphics-symbol" aria-roledescription="bar" d="M221,170h18v20h-18Z" fill="red"/><path aria-label="age: 29; count: 1; _tooltip_summary: age: 29, count: 1, race: Black; race: Black" role="graphics-symbol" aria-roledescription="bar" d="M241,180h18v10h-18Z" fill="red"/><path aria-label="age: 30; count: 4; _tooltip_summary: age: 30, count: 4, race: Black; race: Black" role="graphics-symbol" aria-roledescription="bar" d="M261,160h18v40h-18Z" fill="red"/><path aria-label="age: 31; count: 4; _tooltip_summary: age: 31, count: 4, race: Black; race: Black" role="graphics-symbol" aria-roledescription="bar" d="M281,150h18v40h-18Z" fill="red"/><path aria-label="age: 32; count: 8; _tooltip_summary: age: 32, count: 8, race: Black; race: Black" role="graphics-symbol" aria-roledescription="bar" d="M301,110.00000000000001h18v79.99999999999999h-18Z" fill="red"/><path aria-label="age: 33; count: 1; _tooltip_summary: age: 33, count: 1, race: Black; race: Black" role="graphics-symbol" aria-roledescription="bar" d="M321,190h18v10h-18Z" fill="red"/><path aria-label="age: 34; count: 8; _tooltip_summary: age: 34, count: 8, race: Black; race: Black" role="graphics-symbol" aria-roledescription="bar" d="M341,89.99999999999999h18v80.00000000000001h-18Z" fill="red"/><path aria-label="age: 35; count: 5; _tooltip_summary: age: 35, count: 5, race: Black; race: Black" role="graphics-symbol" aria-roledescription="bar" d="M361,150h18v50h-18Z" fill="red"/><path aria-label="age: 36; count: 4; _tooltip_summary: age: 36, count: 4, race: Black; race: Black" role="graphics-symbol" aria-roledescription="bar" d="M381,150h18v40h-18Z" fill="red"/><path aria-label="age: 37; count: 7; _tooltip_summary: age: 37, count: 7, race: Black; race: Black" role="graphics-symbol" aria-roledescription="bar" d="M401,130h18v70h-18Z" fill="red"/><path aria-label="age: 38; count: 4; _tooltip_summary: age: 38, count: 4, race: Black; race: Black" role="graphics-symbol" aria-roledescription="bar" d="M421,120h18v40h-18Z" fill="red"/><path aria-label="age: 39; count: 1; _tooltip_summary: age: 39, count: 1, race: Black; race: Black" role="graphics-symbol" aria-roledescription="bar" d="M441,170h18v10h-18Z" fill="red"/><path aria-label="age: 40; count: 9; _tooltip_summary: age: 40, count: 9, race: Black; race: Black" role="graphics-symbol" aria-roledescription="bar" d="M461,100h18v90h-18Z" fill="red"/><path aria-label="age: 20; count: 1; _tooltip_summary: age: 20, count: 1, race: White; race: White" role="graphics-symbol" aria-roledescription="bar" d="M61,190h18v10h-18Z" fill="magenta"/><path aria-label="age: 22; count: 1; _tooltip_summary: age: 22, count: 1, race: White; race: White" role="graphics-symbol" aria-roledescription="bar" d="M101,190h18v10h-18Z" fill="magenta"/><path aria-label="age: 25; count: 1; _tooltip_summary: age: 25, count: 1, race: White; race: White" role="graphics-symbol" aria-roledescription="bar" d="M161,190h18v10h-18Z" fill="magenta"/><path aria-label="age: 26; count: 2; _tooltip_summary: age: 26, count: 2, race: White; race: White" role="graphics-symbol" aria-roledescription="bar" d="M181,180h18v20h-18Z" fill="magenta"/><path aria-label="age: 28; count: 1; _tooltip_summary: age: 28, count: 1, race: White; race: White" role="graphics-symbol" aria-roledescription="bar" d="M221,190h18v10h-18Z" fill="magenta"/><path aria-label="age: 29; count: 1; _tooltip_summary: age: 29, count: 1, race: White; race: White" role="graphics-symbol" aria-roledescription="bar" d="M241,190h18v10h-18Z" fill="magenta"/><path aria-label="age: 31; count: 1; _tooltip_summary: age: 31, count: 1, race: White; race: White" role="graphics-symbol" aria-roledescription="bar" d="M281,190h18v10h-18Z" fill="magenta"/><path aria-label="age: 32; count: 1; _tooltip_summary: age: 32, count: 1, race: White; race: White" role="graphics-symbol" aria-roledescription="bar" d="M301,190h18v10h-18Z" fill="magenta"/><path aria-label="age: 34; count: 3; _tooltip_summary: age: 34, count: 3, race: White; race: White" role="graphics-symbol" aria-roledescription="bar" d="M341,170h18v30h-18Z" fill="magenta"/><path aria-label="age: 36; count: 1; _tooltip_summary: age: 36, count: 1, race: White; race: White" role="graphics-symbol" aria-roledescription="bar" d="M381,190h18v10h-18Z" fill="magenta"/><path aria-label="age: 38; count: 4; _tooltip_summary: age: 38, count: 4, race: White; race: White" role="graphics-symbol" aria-roledescription="bar" d="M421,160h18v40h-18Z" fill="magenta"/><path aria-label="age: 39; count: 2; _tooltip_summary: age: 39, count: 2, race: White; race: White" role="graphics-symbol" aria-roledescription="bar" d="M441,180h18v20h-18Z" fill="magenta"/><path aria-label="age: 40; count: 1; _tooltip_summary: age: 40, count: 1, race: White; race: White" role="graphics-symbol" aria-roledescription="bar" d="M461,190h18v10h-18Z" fill="magenta"/><path aria-label="age: 12; count: 1; _tooltip_summary: age: 12, count: 1, race:  Latino; race:  Latino" role="graphics-symbol" aria-roledescription="bar" d="M1,190h18v10h-18Z" fill="blue"/><path aria-label="age: 23; count: 3; _tooltip_summary: age: 23, count: 3, race:  Latino; race:  Latino" role="graphics-symbol" aria-roledescription="bar" d="M121,150h18v30h-18Z" fill="blue"/><path aria-label="age: 24; count: 1; _tooltip_summary: age: 24, count: 1, race:  Latino; race:  Latino" role="graphics-symbol" aria-roledescription="bar" d="M141,190h18v10h-18Z" fill="blue"/><path aria-label="age: 25; count: 1; _tooltip_summary: age: 25, count: 1, race:  Latino; race:  Latino" role="graphics-symbol" aria-roledescription="bar" d="M161,170h18v10h-18Z" fill="blue"/><path aria-label="age: 26; count: 1; _tooltip_summary: age: 26, count: 1, race:  Latino; race:  Latino" role="graphics-symbol" aria-roledescription="bar" d="M181,170h18v10h-18Z" fill="blue"/><path aria-label="age: 27; count: 1; _tooltip_summary: age: 27, count: 1, race:  Latino; race:  Latino" role="graphics-symbol" aria-roledescription="bar" d="M201,180h18v10h-18Z" fill="blue"/><path aria-label="age: 28; count: 1; _tooltip_summary: age: 28, count: 1, race:  Latino; race:  Latino" role="graphics-symbol" aria-roledescription="bar" d="M221,160h18v10h-18Z" fill="blue"/><path aria-label="age: 29; count: 3; _tooltip_summary: age: 29, count: 3, race:  Latino; race:  Latino" role="graphics-symbol" aria-roledescription="bar" d="M241,150h18v30h-18Z" fill="blue"/><path aria-label="age: 30; count: 7; _tooltip_summary: age: 30, count: 7, race:  Latino; race:  Latino" role="graphics-symbol" aria-roledescription="bar" d="M261,89.99999999999999h18v70.00000000000001h-18Z" fill="blue"/><path aria-label="age: 31; count: 4; _tooltip_summary: age: 31, count: 4, race:  Latino; race:  Latino" role="graphics-symbol" aria-roledescription="bar" d="M281,110.00000000000001h18v39.999999999999986h-18Z" fill="blue"/><path aria-label="age: 32; count: 2; _tooltip_summary: age: 32, count: 2, race:  Latino; race:  Latino" role="graphics-symbol" aria-roledescription="bar" d="M301,89.99999999999999h18v20.00000000000003h-18Z" fill="blue"/><path aria-label="age: 33; count: 2; _tooltip_summary: age: 33, count: 2, race:  Latino; race:  Latino" role="graphics-symbol" aria-roledescription="bar" d="M321,160h18v20h-18Z" fill="blue"/><path aria-label="age: 34; count: 2; _tooltip_summary: age: 34, count: 2, race:  Latino; race:  Latino" role="graphics-symbol" aria-roledescription="bar" d="M341,70h18v19.999999999999986h-18Z" fill="blue"/><path aria-label="age: 35; count: 5; _tooltip_summary: age: 35, count: 5, race:  Latino; race:  Latino" role="graphics-symbol" aria-roledescription="bar" d="M361,100h18v50h-18Z" fill="blue"/><path aria-label="age: 36; count: 8; _tooltip_summary: age: 36, count: 8, race:  Latino; race:  Latino" role="graphics-symbol" aria-roledescription="bar" d="M381,70h18v80h-18Z" fill="blue"/><path aria-label="age: 37; count: 12; _tooltip_summary: age: 37, count: 12, race:  Latino; race:  Latino" role="graphics-symbol" aria-roledescription="bar" d="M401,0h18v120h-18Z" fill="blue"/><path aria-label="age: 38; count: 8; _tooltip_summary: age: 38, count: 8, race:  Latino; race:  Latino" role="graphics-symbol" aria-roledescription="bar" d="M421,39.99999999999999h18v80h-18Z" fill="blue"/><path aria-label="age: 39; count: 10; _tooltip_summary: age: 39, count: 10, race:  Latino; race:  Latino" role="graphics-symbol" aria-roledescription="bar" d="M441,70h18v100h-18Z" fill="blue"/><path aria-label="age: 40; count: 8; _tooltip_summary: age: 40, count: 8, race:  Latino; race:  Latino" role="graphics-symbol" aria-roledescription="bar" d="M461,19.999999999999996h18v80h-18Z" fill="blue"/></g><g class="mark-group role-legend" role="graphics-symbol" aria-roledescription="legend" aria-label="Symbol legend titled 'race' for fill color with 4 values:  Latino, Asian, Black, White"><g transform="translate(498,0)"><path class="background" aria-hidden="true" d="M0,0h47v71h-47Z" pointer-events="none"/><g><g class="mark-group role-legend-entry"><g transform="translate(1,17)"><path class="background" aria-hidden="true" d="M0,0h0v0h0Z" pointer-events="none"/><g><g class="mark-group role-scope" role="graphics-object" aria-roledescription="group mark container"><g transform="translate(0,0)"><path class="background" aria-hidden="true" d="M0,0h44.96666717529297v10.5h-44.96666717529297Z" pointer-events="none" opacity="1"/><g><g class="mark-symbol role-legend-symbol" pointer-events="none"><path transform="translate(5.5,5.5)" d="M-2.7386127875258306,-2.7386127875258306h5.477225575051661v5.477225575051661h-5.477225575051661Z" fill="blue" stroke-width="1.5" opacity="1"/></g><g class="mark-text role-legend-label" pointer-events="none"><text text-anchor="start" transform="translate(15,8.5)" font-family="sans-serif" font-size="11px" fill="#000" opacity="1">Latino</text></g></g><path class="foreground" aria-hidden="true" d="" pointer-events="none" display="none"/></g><g transform="translate(0,14)"><path class="background" aria-hidden="true" d="M0,0h44.96666717529297v10.5h-44.96666717529297Z" pointer-events="none" opacity="1"/><g><g class="mark-symbol role-legend-symbol" pointer-events="none"><path transform="translate(5.5,5.5)" d="M-2.7386127875258306,-2.7386127875258306h5.477225575051661v5.477225575051661h-5.477225575051661Z" fill="yellow" stroke-width="1.5" opacity="1"/></g><g class="mark-text role-legend-label" pointer-events="none"><text text-anchor="start" transform="translate(15,8.5)" font-family="sans-serif" font-size="11px" fill="#000" opacity="1">Asian</text></g></g><path class="foreground" aria-hidden="true" d="" pointer-events="none" display="none"/></g><g transform="translate(0,28)"><path class="background" aria-hidden="true" d="M0,0h44.96666717529297v10.5h-44.96666717529297Z" pointer-events="none" opacity="1"/><g><g class="mark-symbol role-legend-symbol" pointer-events="none"><path transform="translate(5.5,5.5)" d="M-2.7386127875258306,-2.7386127875258306h5.477225575051661v5.477225575051661h-5.477225575051661Z" fill="red" stroke-width="1.5" opacity="1"/></g><g class="mark-text role-legend-label" pointer-events="none"><text text-anchor="start" transform="translate(15,8.5)" font-family="sans-serif" font-size="11px" fill="#000" opacity="1">Black</text></g></g><path class="foreground" aria-hidden="true" d="" pointer-events="none" display="none"/></g><g transform="translate(0,42)"><path class="background" aria-hidden="true" d="M0,0h44.96666717529297v10.5h-44.96666717529297Z" pointer-events="none" opacity="1"/><g><g class="mark-symbol role-legend-symbol" pointer-events="none"><path transform="translate(5.5,5.5)" d="M-2.7386127875258306,-2.7386127875258306h5.477225575051661v5.477225575051661h-5.477225575051661Z" fill="magenta" stroke-width="1.5" opacity="1"/></g><g class="mark-text role-legend-label" pointer-events="none"><text text-anchor="start" transform="translate(15,8.5)" font-family="sans-serif" font-size="11px" fill="#000" opacity="1">White</text></g></g><path class="foreground" aria-hidden="true" d="" pointer-events="none" display="none"/></g></g></g><path class="foreground" aria-hidden="true" d="" pointer-events="none" display="none"/></g></g><g class="mark-text role-legend-title" pointer-events="none"><text text-anchor="start" transform="translate(1,10)" font-family="sans-serif" font-size="11px" font-weight="bold" fill="#000" opacity="1">race</text></g></g><path class="foreground" aria-hidden="true" d="" pointer-events="none" display="none"/></g></g></g><path class="foreground" aria-hidden="true" d="" display="none"/></g></g></g></svg>