<svg xmlns="http://www.w3.org/2000/svg" xmlns:xlink="http://www.w3.org/1999/xlink" xmlns:lucid="lucid" width="1760" height="1360"><g transform="translate(0 0)" lucid:page-tab-id="0_0"><path d="M0 0h1760v1360H0z" fill="#fff"/><path d="M527.5 361.82c0 88.27-72.2 159.83-161.25 159.83C277.2 521.65 205 450.1 205 361.83 205 273.56 277.2 202 366.25 202c89.06 0 161.25 71.56 161.25 159.82z" stroke="#b2b2b2" fill="#fff"/><path d="M488.75 361.82c0 66.3-54.85 120.05-122.5 120.05s-122.5-53.74-122.5-120.05c0-66.3 54.85-120.05 122.5-120.05s122.5 53.75 122.5 120.05z" stroke="#b2b2b2" fill="#fff"/><path d="M441.8 361.82c0 39.05-33.82 70.7-75.55 70.7s-75.56-31.65-75.56-70.7c0-39.04 33.82-70.7 75.55-70.7s75.56 31.66 75.56 70.7z" stroke="#b2b2b2" fill="#fff"/><path d="M406.25 361.82c0 22.1-17.9 40-40 40s-40-17.9-40-40 17.9-40 40-40 40 17.9 40 40z" stroke="#b2b2b2" fill="#c92d39" fill-opacity=".37"/><path d="M381.84 381.84c-23.43 23.43-118.4-33.56-212.13-127.28C76 160.83 19 65.86 42.44 42.43 65.86 19 160.83 75.98 254.56 169.7c93.72 93.73 150.7 188.7 127.28 212.14z" stroke="#000" stroke-width="2" fill="#fff" fill-opacity="0"/><path d="M350.3 381.84c-23.44-23.43 33.55-118.4 127.27-212.13C571.3 76 666.27 19 689.7 42.44c23.44 23.43-33.55 118.4-127.27 212.13-93.73 93.72-188.7 150.7-212.14 127.28z" stroke="#000" stroke-width="2" fill="#fff" fill-opacity="0"/><path d="M350.3 342.43C373.72 319 468.7 375.98 562.42 469.7c93.72 93.73 150.7 188.7 127.28 212.14-23.43 23.43-118.4-33.56-212.13-127.28-93.72-93.73-150.7-188.7-127.28-212.13z" stroke="#000" stroke-width="2" fill="#fff" fill-opacity="0"/><path d="M381.84 342.43c23.43 23.43-33.56 118.4-127.28 212.13-93.73 93.72-188.7 150.7-212.13 127.28C19 658.4 75.98 563.44 169.7 469.7 263.44 376 358.4 319 381.85 342.44z" stroke="#000" stroke-width="2" fill="#fff" fill-opacity="0"/><path d="M1496.5 351.57c0 88.26-72.2 159.82-161.25 159.82-89.06 0-161.25-71.57-161.25-159.83 0-88.27 72.2-159.83 161.25-159.83 89.06 0 161.25 71.56 161.25 159.83z" stroke="#b2b2b2" fill="#fff"/><path d="M1457.75 351.57c0 66.3-54.85 120.05-122.5 120.05s-122.5-53.75-122.5-120.05 54.85-120.05 122.5-120.05 122.5 53.74 122.5 120.05z" stroke="#b2b2b2" fill="#fff"/><path d="M1410.8 351.57c0 39.04-33.82 70.7-75.55 70.7s-75.56-31.66-75.56-70.7c0-39.05 33.82-70.7 75.55-70.7s75.56 31.65 75.56 70.7z" stroke="#b2b2b2" fill="#fff"/><path d="M1375.25 351.57c0 22.1-17.9 40-40 40s-40-17.9-40-40 17.9-40 40-40 40 17.9 40 40z" stroke="#b2b2b2" fill="#c92d39" fill-opacity=".37"/><path d="M692.1 995.06c0 88.27-72.2 159.83-161.25 159.83-89.06 0-161.25-71.57-161.25-159.84 0-88.27 72.2-159.82 161.25-159.82S692.1 906.8 692.1 995.06z" stroke="#b2b2b2" fill="#fff"/><path d="M653.35 995.06c0 66.3-54.85 120.05-122.5 120.05-67.66 0-122.5-53.74-122.5-120.04 0-66.3 54.84-120.05 122.5-120.05 67.65 0 122.5 53.76 122.5 120.06z" stroke="#b2b2b2" fill="#fff"/><path d="M606.4 995.06c0 39.05-33.82 70.7-75.55 70.7s-75.56-31.65-75.56-70.7c0-39.04 33.82-70.7 75.55-70.7s75.56 31.66 75.56 70.7z" stroke="#b2b2b2" fill="#fff"/><path d="M570.85 995.06c0 22.1-17.9 40-40 40s-40-17.9-40-40 17.9-40 40-40 40 17.9 40 40z" stroke="#b2b2b2" fill="#c92d39" fill-opacity=".37"/><path d="M1324.12 363.53c-13.32-13.32 51.86-100.1 145.6-193.82C1563.4 76 1650.2 10.8 1663.5 24.13c13.34 13.33-51.84 100.1-145.57 193.83-93.72 93.73-180.5 158.9-193.83 145.58z" stroke="#000" stroke-width="2" fill="#fff" fill-opacity="0"/><path d="M1333.54 331.74c18.84 0 34.12 107.45 34.12 240s-15.28 240-34.12 240c-18.84 0-34.1-107.45-34.1-240s15.26-240 34.1-240z" stroke="#000" stroke-width="2" fill="#fff" fill-opacity="0"/><path d="M1004.12 24.12c13.33-13.32 100.1 51.86 193.83 145.6 93.73 93.7 158.9 180.5 145.58 193.8-13.32 13.34-100.1-51.84-193.82-145.57-93.72-93.72-158.9-180.5-145.58-193.83zM191.74 691.74c6.5-6.48 87.72 64.24 181.45 157.97 93.72 93.73 164.44 174.97 157.95 181.45-6.48 6.5-87.72-64.23-181.44-157.96C256 779.45 185.27 698.22 191.75 691.73z" stroke="#000" stroke-width="2" fill="#fff" fill-opacity="0"/><path d="M496.9 995.4c6.48-6.5 87.72 64.22 181.45 157.95 93.72 93.73 164.45 174.96 157.96 181.45-6.47 6.48-87.7-64.24-181.44-157.97-93.72-93.72-164.44-174.96-157.96-181.44z" stroke="#000" stroke-width="2" fill="#fff" fill-opacity="0"/><path d="M1242.5 1000c0 88.27-72.2 159.82-161.25 159.82-89.06 0-161.25-71.55-161.25-159.82s72.2-159.83 161.25-159.83c89.06 0 161.25 71.56 161.25 159.83z" stroke="#b2b2b2" fill="#fff"/><path d="M1203.75 1000c0 66.3-54.85 120.05-122.5 120.05s-122.5-53.75-122.5-120.05 54.85-120.05 122.5-120.05 122.5 53.75 122.5 120.05z" stroke="#b2b2b2" fill="#fff"/><path d="M1156.8 1000c0 39.05-33.82 70.7-75.55 70.7s-75.56-31.65-75.56-70.7c0-39.05 33.82-70.7 75.55-70.7s75.56 31.65 75.56 70.7z" stroke="#b2b2b2" fill="#fff"/><path d="M1121.25 1000c0 22.1-17.9 40-40 40s-40-17.9-40-40 17.9-40 40-40 40 17.9 40 40z" stroke="#b2b2b2" fill="#c92d39" fill-opacity=".37"/><path d="M1113.26 540c4.4 0 8 107.45 8 240s-3.6 240-8 240c-4.42 0-8-107.45-8-240s3.58-240 8-240z" stroke="#000" stroke-width="2" fill="#fff" fill-opacity="0"/><path d="M243.75 60h240v74.27h-240z" stroke="#000" stroke-opacity="0" stroke-width="2" fill="#fff" fill-opacity="0"/><use xlink:href="#a" transform="matrix(1,0,0,1,248.75,65) translate(17.037962962963107 44.875694444444385)"/><use xlink:href="#b" transform="matrix(1,0,0,1,248.75,65) translate(183.20895061728385 44.875694444444385)"/><path d="M1215.25 51.74h240V126h-240z" stroke="#000" stroke-opacity="0" stroke-width="2" fill="#fff" fill-opacity="0"/><use xlink:href="#a" transform="matrix(1,0,0,1,1220.25,56.741017177982435) translate(17.037962962963107 44.875694444444385)"/><use xlink:href="#c" transform="matrix(1,0,0,1,1220.25,56.741017177982435) translate(183.20895061728385 44.875694444444385)"/><path d="M410.85 740h240v74.27h-240z" stroke="#000" stroke-opacity="0" stroke-width="2" fill="#fff" fill-opacity="0"/><use xlink:href="#a" transform="matrix(1,0,0,1,415.84785963025865,744.9999999999998) translate(17.037962962963107 44.875694444444385)"/><use xlink:href="#d" transform="matrix(1,0,0,1,415.84785963025865,744.9999999999998) translate(183.20895061728385 44.875694444444385)"/><path d="M840 740.75h240V815H840z" stroke="#000" stroke-opacity="0" stroke-width="2" fill="#fff" fill-opacity="0"/><g><use xlink:href="#a" transform="matrix(1,0,0,1,845,745.7454406077421) translate(17.037962962963107 44.875694444444385)"/><use xlink:href="#e" transform="matrix(1,0,0,1,845,745.7454406077421) translate(183.20895061728385 44.875694444444385)"/></g><defs><path d="M63-220v92h138v28H63V0H30v-248h175v28H63" id="f"/><path d="M24-231v-30h32v30H24zM24 0v-190h32V0H24" id="g"/><path d="M177-190C167-65 218 103 67 71c-23-6-38-20-44-43l32-5c15 47 100 32 89-28v-30C133-14 115 1 83 1 29 1 15-40 15-95c0-56 16-97 71-98 29-1 48 16 59 35 1-10 0-23 2-32h30zM94-22c36 0 50-32 50-73 0-42-14-75-50-75-39 0-46 34-46 75s6 73 46 73" id="h"/><path d="M84 4C-5 8 30-112 23-190h32v120c0 31 7 50 39 49 72-2 45-101 50-169h31l1 190h-30c-1-10 1-25-2-33-11 22-28 36-60 37" id="i"/><path d="M114-163C36-179 61-72 57 0H25l-1-190h30c1 12-1 29 2 39 6-27 23-49 58-41v29" id="j"/><path d="M100-194c63 0 86 42 84 106H49c0 40 14 67 53 68 26 1 43-12 49-29l28 8c-11 28-37 45-77 45C44 4 14-33 15-96c1-61 26-98 85-98zm52 81c6-60-76-77-97-28-3 7-6 17-6 28h103" id="k"/><g id="a"><use transform="matrix(0.14876543209876522,0,0,0.14876543209876522,0,0)" xlink:href="#f"/><use transform="matrix(0.14876543209876522,0,0,0.14876543209876522,32.579629629629586,0)" xlink:href="#g"/><use transform="matrix(0.14876543209876522,0,0,0.14876543209876522,44.332098765432036,0)" xlink:href="#h"/><use transform="matrix(0.14876543209876522,0,0,0.14876543209876522,74.08518518518508,0)" xlink:href="#i"/><use transform="matrix(0.14876543209876522,0,0,0.14876543209876522,103.83827160493813,0)" xlink:href="#j"/><use transform="matrix(0.14876543209876522,0,0,0.14876543209876522,121.54135802469119,0)" xlink:href="#k"/></g><path d="M27 0v-27h64v-190l-56 39v-29l58-41h29v221h61V0H27" id="l"/><use transform="matrix(0.14876543209876522,0,0,0.14876543209876522,0,0)" xlink:href="#l" id="b"/><path d="M101-251c82-7 93 87 43 132L82-64C71-53 59-42 53-27h129V0H18c2-99 128-94 128-182 0-28-16-43-45-43s-46 15-49 41l-32-3c6-41 34-60 81-64" id="m"/><use transform="matrix(0.14876543209876522,0,0,0.14876543209876522,0,0)" xlink:href="#m" id="c"/><path d="M126-127c33 6 58 20 58 59 0 88-139 92-164 29-3-8-5-16-6-25l32-3c6 27 21 44 54 44 32 0 52-15 52-46 0-38-36-46-79-43v-28c39 1 72-4 72-42 0-27-17-43-46-43-28 0-47 15-49 41l-32-3c6-42 35-63 81-64 48-1 79 21 79 65 0 36-21 52-52 59" id="n"/><use transform="matrix(0.14876543209876522,0,0,0.14876543209876522,0,0)" xlink:href="#n" id="d"/><path d="M155-56V0h-30v-56H8v-25l114-167h33v167h35v25h-35zm-30-156c-27 46-58 90-88 131h88v-131" id="o"/><use transform="matrix(0.14876543209876522,0,0,0.14876543209876522,0,0)" xlink:href="#o" id="e"/></defs></g></svg>