<svg class="marks" width="334" height="1121" viewBox="0 0 334 1121" version="1.1" xmlns="http://www.w3.org/2000/svg" xmlns:xlink="http://www.w3.org/1999/xlink"><rect width="334" height="1121" style="fill: #f9f9f9;"></rect><g transform="translate(52,5)"><g class="mark-group role-frame root"><g transform="translate(0,0)"><path class="background" d="M0.5,0.5h200v1071h-200Z" style="fill: none; stroke: #ddd;"></path><g><g class="mark-group role-axis"><g transform="translate(0.5,1071.5)"><path class="background" d="M0,0h0v0h0Z" style="pointer-events: none; fill: none;"></path><g><g class="mark-rule role-axis-grid" style="pointer-events: none;"><line transform="translate(0,0)" x2="0" y2="-1071" style="fill: none; stroke: #ddd; stroke-width: 0.2; opacity: 1;"></line><line transform="translate(63,0)" x2="0" y2="-1071" style="fill: none; stroke: #ddd; stroke-width: 0.2; opacity: 1;"></line><line transform="translate(125,0)" x2="0" y2="-1071" style="fill: none; stroke: #ddd; stroke-width: 0.2; opacity: 1;"></line><line transform="translate(188,0)" x2="0" y2="-1071" style="fill: none; stroke: #ddd; stroke-width: 0.2; opacity: 1;"></line></g></g></g></g><g class="mark-rect role-mark marks"><path d="M162.5,463.05000000000007h6.25v18.900000000000002h-6.25Z" style="fill: #ab5787;"></path><path d="M177.5,568.0500000000001h12.5v18.900000000000002h-12.5Z" style="fill: #ab5787;"></path><path d="M18.75,1.0500000000000682h16.25v18.900000000000002h-16.25Z" style="fill: #51b2e5;"></path><path d="M18.75,22.050000000000068h8.750000000000004v18.900000000000002h-8.750000000000004Z" style="fill: #51b2e5;"></path><path d="M33.75,43.05000000000007h16.25v18.900000000000002h-16.25Z" style="fill: #51b2e5;"></path><path d="M27.500000000000004,64.05000000000007h17.499999999999996v18.900000000000002h-17.499999999999996Z" style="fill: #51b2e5;"></path><path d="M32.5,85.05000000000007h22.500000000000007v18.900000000000002h-22.500000000000007Z" style="fill: #51b2e5;"></path><path d="M17.5,106.05000000000007h21.25v18.900000000000002h-21.25Z" style="fill: #51b2e5;"></path><path d="M48.75,127.05000000000007h17.5v18.900000000000002h-17.5Z" style="fill: #51b2e5;"></path><path d="M47.5,148.05000000000007h28.75v18.900000000000002h-28.75Z" style="fill: #51b2e5;"></path><path d="M31.25,169.05000000000007h28.75v18.900000000000002h-28.75Z" style="fill: #51b2e5;"></path><path d="M45,190.05000000000007h33.75v18.900000000000002h-33.75Z" style="fill: #51b2e5;"></path><path d="M61.25000000000001,211.05000000000007h36.24999999999999v18.900000000000002h-36.24999999999999Z" style="fill: #51b2e5;"></path><path d="M76.25,232.05000000000007h22.5v18.900000000000002h-22.5Z" style="fill: #51b2e5;"></path><path d="M81.25,253.05000000000007h41.250000000000014v18.900000000000002h-41.250000000000014Z" style="fill: #51b2e5;"></path><path d="M80,274.05000000000007h40v18.900000000000002h-40Z" style="fill: #51b2e5;"></path><path d="M85,295.05000000000007h45v18.900000000000002h-45Z" style="fill: #51b2e5;"></path><path d="M100,316.05000000000007h35v18.900000000000002h-35Z" style="fill: #51b2e5;"></path><path d="M85,337.05000000000007h42.499999999999986v18.900000000000002h-42.499999999999986Z" style="fill: #51b2e5;"></path><path d="M101.25,358.05000000000007h43.75v18.900000000000002h-43.75Z" style="fill: #51b2e5;"></path><path d="M108.74999999999999,379.05000000000007h46.250000000000014v18.900000000000002h-46.250000000000014Z" style="fill: #51b2e5;"></path><path d="M97.5,400.05000000000007h51.25v18.900000000000002h-51.25Z" style="fill: #51b2e5;"></path><path d="M97.5,421.05000000000007h52.5v18.900000000000002h-52.5Z" style="fill: #51b2e5;"></path><path d="M122.50000000000001,442.05000000000007h53.749999999999986v18.900000000000002h-53.749999999999986Z" style="fill: #51b2e5;"></path><path d="M102.49999999999999,463.05000000000007h60.000000000000014v18.900000000000002h-60.000000000000014Z" style="fill: #51b2e5;"></path><path d="M116.25000000000001,484.05000000000007h66.24999999999999v18.900000000000002h-66.24999999999999Z" style="fill: #51b2e5;"></path><path d="M111.25,505.05000000000007h55v18.900000000000002h-55Z" style="fill: #51b2e5;"></path><path d="M78.75,526.0500000000001h41.25v18.900000000000002h-41.25Z" style="fill: #51b2e5;"></path><path d="M100,547.0500000000001h48.75v18.900000000000002h-48.75Z" style="fill: #51b2e5;"></path><path d="M108.74999999999999,568.0500000000001h68.75000000000001v18.900000000000002h-68.75000000000001Z" style="fill: #51b2e5;"></path><path d="M97.5,589.0500000000001h53.75v18.900000000000002h-53.75Z" style="fill: #51b2e5;"></path><path d="M98.75,610.0500000000001h55v18.900000000000002h-55Z" style="fill: #51b2e5;"></path><path d="M85,631.0500000000001h63.75v18.900000000000002h-63.75Z" style="fill: #51b2e5;"></path><path d="M98.75,652.0500000000001h57.5v18.900000000000002h-57.5Z" style="fill: #51b2e5;"></path><path d="M98.75,673.0500000000001h55v18.900000000000002h-55Z" style="fill: #51b2e5;"></path><path d="M93.75,694.0500000000001h60v18.900000000000002h-60Z" style="fill: #51b2e5;"></path><path d="M96.25,715.0500000000001h63.75v18.900000000000002h-63.75Z" style="fill: #51b2e5;"></path><path d="M110.00000000000001,736.0500000000001h56.249999999999986v18.900000000000002h-56.249999999999986Z" style="fill: #51b2e5;"></path><path d="M113.75,757.0500000000001h45v18.900000000000002h-45Z" style="fill: #51b2e5;"></path><path d="M132.5,778.0500000000001h52.5v18.900000000000002h-52.5Z" style="fill: #51b2e5;"></path><path d="M102.49999999999999,799.0500000000001h55.000000000000014v18.900000000000002h-55.000000000000014Z" style="fill: #51b2e5;"></path><path d="M111.25,820.0500000000001h50v18.900000000000002h-50Z" style="fill: #51b2e5;"></path><path d="M132.5,841.0500000000001h51.25v18.900000000000002h-51.25Z" style="fill: #51b2e5;"></path><path d="M98.75,862.0500000000001h43.75v18.900000000000002h-43.75Z" style="fill: #51b2e5;"></path><path d="M83.75,883.0500000000001h31.249999999999986v18.900000000000002h-31.249999999999986Z" style="fill: #51b2e5;"></path><path d="M66.25,904.0500000000001h38.75v18.900000000000002h-38.75Z" style="fill: #51b2e5;"></path><path d="M57.49999999999999,925.0500000000001h23.750000000000007v18.900000000000002h-23.750000000000007Z" style="fill: #51b2e5;"></path><path d="M41.25,946.0500000000001h20.000000000000007v18.900000000000002h-20.000000000000007Z" style="fill: #51b2e5;"></path><path d="M32.5,967.0500000000001h17.5v18.900000000000002h-17.5Z" style="fill: #51b2e5;"></path><path d="M41.25,988.0500000000001h11.25v18.900000000000002h-11.25Z" style="fill: #51b2e5;"></path><path d="M20,1009.0500000000001h15v18.900000000000002h-15Z" style="fill: #51b2e5;"></path><path d="M13.750000000000002,1030.0500000000002h7.499999999999998v18.900000000000002h-7.499999999999998Z" style="fill: #51b2e5;"></path><path d="M8.75,1051.0500000000002h6.25v18.900000000000002h-6.25Z" style="fill: #51b2e5;"></path><path d="M0,1.0500000000000682h18.75v18.900000000000002h-18.75Z" style="fill: #703c5c;"></path><path d="M0,22.050000000000068h18.75v18.900000000000002h-18.75Z" style="fill: #703c5c;"></path><path d="M15,43.05000000000007h18.75v18.900000000000002h-18.75Z" style="fill: #703c5c;"></path><path d="M11.25,64.05000000000007h16.250000000000004v18.900000000000002h-16.250000000000004Z" style="fill: #703c5c;"></path><path d="M8.75,85.05000000000007h23.75v18.900000000000002h-23.75Z" style="fill: #703c5c;"></path><path d="M6.25,106.05000000000007h11.25v18.900000000000002h-11.25Z" style="fill: #703c5c;"></path><path d="M20,127.05000000000007h28.75v18.900000000000002h-28.75Z" style="fill: #703c5c;"></path><path d="M26.25,148.05000000000007h21.25v18.900000000000002h-21.25Z" style="fill: #703c5c;"></path><path d="M0,169.05000000000007h31.25v18.900000000000002h-31.25Z" style="fill: #703c5c;"></path><path d="M18.75,190.05000000000007h26.25v18.900000000000002h-26.25Z" style="fill: #703c5c;"></path><path d="M20,211.05000000000007h41.25000000000001v18.900000000000002h-41.25000000000001Z" style="fill: #703c5c;"></path><path d="M33.75,232.05000000000007h42.5v18.900000000000002h-42.5Z" style="fill: #703c5c;"></path><path d="M27.500000000000004,253.05000000000007h53.75v18.900000000000002h-53.75Z" style="fill: #703c5c;"></path><path d="M32.5,274.05000000000007h47.5v18.900000000000002h-47.5Z" style="fill: #703c5c;"></path><path d="M32.5,295.05000000000007h52.5v18.900000000000002h-52.5Z" style="fill: #703c5c;"></path><path d="M33.75,316.05000000000007h66.25v18.900000000000002h-66.25Z" style="fill: #703c5c;"></path><path d="M31.25,337.05000000000007h53.75v18.900000000000002h-53.75Z" style="fill: #703c5c;"></path><path d="M40,358.05000000000007h61.25v18.900000000000002h-61.25Z" style="fill: #703c5c;"></path><path d="M56.25,379.05000000000007h52.499999999999986v18.900000000000002h-52.499999999999986Z" style="fill: #703c5c;"></path><path d="M41.25,400.05000000000007h56.25v18.900000000000002h-56.25Z" style="fill: #703c5c;"></path><path d="M36.25,421.05000000000007h61.25v18.900000000000002h-61.25Z" style="fill: #703c5c;"></path><path d="M57.49999999999999,442.05000000000007h65.00000000000003v18.900000000000002h-65.00000000000003Z" style="fill: #703c5c;"></path><path d="M46.25,463.05000000000007h56.249999999999986v18.900000000000002h-56.249999999999986Z" style="fill: #703c5c;"></path><path d="M53.75,484.05000000000007h62.500000000000014v18.900000000000002h-62.500000000000014Z" style="fill: #703c5c;"></path><path d="M52.5,505.05000000000007h58.75v18.900000000000002h-58.75Z" style="fill: #703c5c;"></path><path d="M22.5,526.0500000000001h56.25v18.900000000000002h-56.25Z" style="fill: #703c5c;"></path><path d="M42.5,547.0500000000001h57.5v18.900000000000002h-57.5Z" style="fill: #703c5c;"></path><path d="M38.75,568.0500000000001h69.99999999999999v18.900000000000002h-69.99999999999999Z" style="fill: #703c5c;"></path><path d="M33.75,589.0500000000001h63.75v18.900000000000002h-63.75Z" style="fill: #703c5c;"></path><path d="M55.00000000000001,610.0500000000001h43.74999999999999v18.900000000000002h-43.74999999999999Z" style="fill: #703c5c;"></path><path d="M25,631.0500000000001h60v18.900000000000002h-60Z" style="fill: #703c5c;"></path><path d="M33.75,652.0500000000001h65v18.900000000000002h-65Z" style="fill: #703c5c;"></path><path d="M36.25,673.0500000000001h62.5v18.900000000000002h-62.5Z" style="fill: #703c5c;"></path><path d="M45,694.0500000000001h48.75v18.900000000000002h-48.75Z" style="fill: #703c5c;"></path><path d="M42.5,715.0500000000001h53.75v18.900000000000002h-53.75Z" style="fill: #703c5c;"></path><path d="M48.75,736.0500000000001h61.250000000000014v18.900000000000002h-61.250000000000014Z" style="fill: #703c5c;"></path><path d="M56.25,757.0500000000001h57.5v18.900000000000002h-57.5Z" style="fill: #703c5c;"></path><path d="M55.00000000000001,778.0500000000001h77.5v18.900000000000002h-77.5Z" style="fill: #703c5c;"></path><path d="M46.25,799.0500000000001h56.249999999999986v18.900000000000002h-56.249999999999986Z" style="fill: #703c5c;"></path><path d="M52.5,820.0500000000001h58.75v18.900000000000002h-58.75Z" style="fill: #703c5c;"></path><path d="M53.75,841.0500000000001h78.75v18.900000000000002h-78.75Z" style="fill: #703c5c;"></path><path d="M38.75,862.0500000000001h60v18.900000000000002h-60Z" style="fill: #703c5c;"></path><path d="M28.749999999999996,883.0500000000001h55v18.900000000000002h-55Z" style="fill: #703c5c;"></path><path d="M22.5,904.0500000000001h43.75v18.900000000000002h-43.75Z" style="fill: #703c5c;"></path><path d="M27.500000000000004,925.0500000000001h29.99999999999999v18.900000000000002h-29.99999999999999Z" style="fill: #703c5c;"></path><path d="M10,946.0500000000001h31.25v18.900000000000002h-31.25Z" style="fill: #703c5c;"></path><path d="M15,967.0500000000001h17.5v18.900000000000002h-17.5Z" style="fill: #703c5c;"></path><path d="M15,988.0500000000001h26.25v18.900000000000002h-26.25Z" style="fill: #703c5c;"></path><path d="M0,1009.0500000000001h20v18.900000000000002h-20Z" style="fill: #703c5c;"></path><path d="M0,1030.0500000000002h13.750000000000002v18.900000000000002h-13.750000000000002Z" style="fill: #703c5c;"></path><path d="M0,1051.0500000000002h8.75v18.900000000000002h-8.75Z" style="fill: #703c5c;"></path><path d="M6.25,43.05000000000007h8.75v18.900000000000002h-8.75Z" style="fill: #168dd9;"></path><path d="M0,64.05000000000007h11.25v18.900000000000002h-11.25Z" style="fill: #168dd9;"></path><path d="M0,85.05000000000007h8.75v18.900000000000002h-8.75Z" style="fill: #168dd9;"></path><path d="M0,106.05000000000007h6.25v18.900000000000002h-6.25Z" style="fill: #168dd9;"></path><path d="M0,127.05000000000007h20v18.900000000000002h-20Z" style="fill: #168dd9;"></path><path d="M11.25,148.05000000000007h15v18.900000000000002h-15Z" style="fill: #168dd9;"></path><path d="M0,190.05000000000007h18.75v18.900000000000002h-18.75Z" style="fill: #168dd9;"></path><path d="M7.5,211.05000000000007h12.5v18.900000000000002h-12.5Z" style="fill: #168dd9;"></path><path d="M16.25,232.05000000000007h17.5v18.900000000000002h-17.5Z" style="fill: #168dd9;"></path><path d="M6.25,253.05000000000007h21.250000000000004v18.900000000000002h-21.250000000000004Z" style="fill: #168dd9;"></path><path d="M13.750000000000002,274.05000000000007h18.75v18.900000000000002h-18.75Z" style="fill: #168dd9;"></path><path d="M10,295.05000000000007h22.5v18.900000000000002h-22.5Z" style="fill: #168dd9;"></path><path d="M21.25,316.05000000000007h12.5v18.900000000000002h-12.5Z" style="fill: #168dd9;"></path><path d="M6.25,337.05000000000007h25v18.900000000000002h-25Z" style="fill: #168dd9;"></path><path d="M18.75,358.05000000000007h21.25v18.900000000000002h-21.25Z" style="fill: #168dd9;"></path><path d="M27.500000000000004,379.05000000000007h28.749999999999996v18.900000000000002h-28.749999999999996Z" style="fill: #168dd9;"></path><path d="M17.5,400.05000000000007h23.75v18.900000000000002h-23.75Z" style="fill: #168dd9;"></path><path d="M12.5,421.05000000000007h23.75v18.900000000000002h-23.75Z" style="fill: #168dd9;"></path><path d="M26.25,442.05000000000007h31.249999999999993v18.900000000000002h-31.249999999999993Z" style="fill: #168dd9;"></path><path d="M17.5,463.05000000000007h28.75v18.900000000000002h-28.75Z" style="fill: #168dd9;"></path><path d="M31.25,484.05000000000007h22.5v18.900000000000002h-22.5Z" style="fill: #168dd9;"></path><path d="M33.75,505.05000000000007h18.75v18.900000000000002h-18.75Z" style="fill: #168dd9;"></path><path d="M8.75,526.0500000000001h13.75v18.900000000000002h-13.75Z" style="fill: #168dd9;"></path><path d="M18.75,547.0500000000001h23.75v18.900000000000002h-23.75Z" style="fill: #168dd9;"></path><path d="M22.5,568.0500000000001h16.25v18.900000000000002h-16.25Z" style="fill: #168dd9;"></path><path d="M12.5,589.0500000000001h21.25v18.900000000000002h-21.25Z" style="fill: #168dd9;"></path><path d="M30,610.0500000000001h25.000000000000007v18.900000000000002h-25.000000000000007Z" style="fill: #168dd9;"></path><path d="M7.5,631.0500000000001h17.5v18.900000000000002h-17.5Z" style="fill: #168dd9;"></path><path d="M12.5,652.0500000000001h21.25v18.900000000000002h-21.25Z" style="fill: #168dd9;"></path><path d="M7.5,673.0500000000001h28.75v18.900000000000002h-28.75Z" style="fill: #168dd9;"></path><path d="M21.25,694.0500000000001h23.75v18.900000000000002h-23.75Z" style="fill: #168dd9;"></path><path d="M18.75,715.0500000000001h23.75v18.900000000000002h-23.75Z" style="fill: #168dd9;"></path><path d="M26.25,736.0500000000001h22.5v18.900000000000002h-22.5Z" style="fill: #168dd9;"></path><path d="M31.25,757.0500000000001h25v18.900000000000002h-25Z" style="fill: #168dd9;"></path><path d="M23.75,778.0500000000001h31.250000000000007v18.900000000000002h-31.250000000000007Z" style="fill: #168dd9;"></path><path d="M15,799.0500000000001h31.25v18.900000000000002h-31.25Z" style="fill: #168dd9;"></path><path d="M36.25,820.0500000000001h16.25v18.900000000000002h-16.25Z" style="fill: #168dd9;"></path><path d="M17.5,841.0500000000001h36.25v18.900000000000002h-36.25Z" style="fill: #168dd9;"></path><path d="M12.5,862.0500000000001h26.25v18.900000000000002h-26.25Z" style="fill: #168dd9;"></path><path d="M16.25,883.0500000000001h12.499999999999996v18.900000000000002h-12.499999999999996Z" style="fill: #168dd9;"></path><path d="M6.25,904.0500000000001h16.25v18.900000000000002h-16.25Z" style="fill: #168dd9;"></path><path d="M10,925.0500000000001h17.500000000000004v18.900000000000002h-17.500000000000004Z" style="fill: #168dd9;"></path><path d="M0,946.0500000000001h10v18.900000000000002h-10Z" style="fill: #168dd9;"></path><path d="M0,967.0500000000001h15v18.900000000000002h-15Z" style="fill: #168dd9;"></path><path d="M6.25,988.0500000000001h8.75v18.900000000000002h-8.75Z" style="fill: #168dd9;"></path><path d="M0,43.05000000000007h6.25v18.900000000000002h-6.25Z" style="fill: #d190b6;"></path><path d="M0,211.05000000000007h7.5v18.900000000000002h-7.5Z" style="fill: #d190b6;"></path><path d="M6.25,232.05000000000007h10v18.900000000000002h-10Z" style="fill: #d190b6;"></path><path d="M0,253.05000000000007h6.25v18.900000000000002h-6.25Z" style="fill: #d190b6;"></path><path d="M13.750000000000002,316.05000000000007h7.499999999999998v18.900000000000002h-7.499999999999998Z" style="fill: #d190b6;"></path><path d="M0,337.05000000000007h6.25v18.900000000000002h-6.25Z" style="fill: #d190b6;"></path><path d="M17.5,379.05000000000007h10.000000000000004v18.900000000000002h-10.000000000000004Z" style="fill: #d190b6;"></path><path d="M7.5,400.05000000000007h10v18.900000000000002h-10Z" style="fill: #d190b6;"></path><path d="M0,421.05000000000007h12.5v18.900000000000002h-12.5Z" style="fill: #d190b6;"></path><path d="M16.25,442.05000000000007h10v18.900000000000002h-10Z" style="fill: #d190b6;"></path><path d="M26.25,505.05000000000007h7.5v18.900000000000002h-7.5Z" style="fill: #d190b6;"></path><path d="M11.25,547.0500000000001h7.5v18.900000000000002h-7.5Z" style="fill: #d190b6;"></path><path d="M12.5,568.0500000000001h10v18.900000000000002h-10Z" style="fill: #d190b6;"></path><path d="M6.25,589.0500000000001h6.25v18.900000000000002h-6.25Z" style="fill: #d190b6;"></path><path d="M21.25,610.0500000000001h8.75v18.900000000000002h-8.75Z" style="fill: #d190b6;"></path><path d="M0,631.0500000000001h7.5v18.900000000000002h-7.5Z" style="fill: #d190b6;"></path><path d="M12.5,694.0500000000001h8.75v18.900000000000002h-8.75Z" style="fill: #d190b6;"></path><path d="M16.25,736.0500000000001h10v18.900000000000002h-10Z" style="fill: #d190b6;"></path><path d="M22.5,757.0500000000001h8.75v18.900000000000002h-8.75Z" style="fill: #d190b6;"></path><path d="M17.5,778.0500000000001h6.25v18.900000000000002h-6.25Z" style="fill: #d190b6;"></path><path d="M8.75,799.0500000000001h6.25v18.900000000000002h-6.25Z" style="fill: #d190b6;"></path><path d="M30,820.0500000000001h6.25v18.900000000000002h-6.25Z" style="fill: #d190b6;"></path><path d="M0,862.0500000000001h12.5v18.900000000000002h-12.5Z" style="fill: #d190b6;"></path><path d="M10,883.0500000000001h6.25v18.900000000000002h-6.25Z" style="fill: #d190b6;"></path><path d="M0,904.0500000000001h6.25v18.900000000000002h-6.25Z" style="fill: #d190b6;"></path><path d="M0,988.0500000000001h6.25v18.900000000000002h-6.25Z" style="fill: #d190b6;"></path><path d="M6.25,274.05000000000007h7.500000000000002v18.900000000000002h-7.500000000000002Z" style="fill: #00609f;"></path><path d="M12.5,358.05000000000007h6.25v18.900000000000002h-6.25Z" style="fill: #00609f;"></path><path d="M0,400.05000000000007h7.5v18.900000000000002h-7.5Z" style="fill: #00609f;"></path><path d="M8.75,463.05000000000007h8.75v18.900000000000002h-8.75Z" style="fill: #00609f;"></path><path d="M22.5,484.05000000000007h8.75v18.900000000000002h-8.75Z" style="fill: #00609f;"></path><path d="M6.25,568.0500000000001h6.25v18.900000000000002h-6.25Z" style="fill: #00609f;"></path><path d="M13.750000000000002,610.0500000000001h7.499999999999998v18.900000000000002h-7.499999999999998Z" style="fill: #00609f;"></path><path d="M6.25,652.0500000000001h6.25v18.900000000000002h-6.25Z" style="fill: #00609f;"></path><path d="M12.5,715.0500000000001h6.25v18.900000000000002h-6.25Z" style="fill: #00609f;"></path><path d="M8.75,736.0500000000001h7.5v18.900000000000002h-7.5Z" style="fill: #00609f;"></path><path d="M15,757.0500000000001h7.5v18.900000000000002h-7.5Z" style="fill: #00609f;"></path><path d="M21.25,820.0500000000001h8.75v18.900000000000002h-8.75Z" style="fill: #00609f;"></path><path d="M6.25,316.05000000000007h7.500000000000002v18.900000000000002h-7.500000000000002Z" style="fill: #d365ba;"></path><path d="M6.25,358.05000000000007h6.25v18.900000000000002h-6.25Z" style="fill: #d365ba;"></path><path d="M10,379.05000000000007h7.5v18.900000000000002h-7.5Z" style="fill: #d365ba;"></path><path d="M10,442.05000000000007h6.25v18.900000000000002h-6.25Z" style="fill: #d365ba;"></path><path d="M16.25,484.05000000000007h6.25v18.900000000000002h-6.25Z" style="fill: #d365ba;"></path><path d="M16.25,505.05000000000007h10v18.900000000000002h-10Z" style="fill: #d365ba;"></path><path d="M0,652.0500000000001h6.25v18.900000000000002h-6.25Z" style="fill: #d365ba;"></path><path d="M10,778.0500000000001h7.5v18.900000000000002h-7.5Z" style="fill: #d365ba;"></path><path d="M10,841.0500000000001h7.5v18.900000000000002h-7.5Z" style="fill: #d365ba;"></path><path d="M0,148.05000000000007h11.25v18.900000000000002h-11.25Z" style="fill: #154866;"></path><path d="M0,232.05000000000007h6.25v18.900000000000002h-6.25Z" style="fill: #154866;"></path><path d="M0,274.05000000000007h6.25v18.900000000000002h-6.25Z" style="fill: #154866;"></path><path d="M0,295.05000000000007h10v18.900000000000002h-10Z" style="fill: #154866;"></path><path d="M0,316.05000000000007h6.25v18.900000000000002h-6.25Z" style="fill: #154866;"></path><path d="M0,358.05000000000007h6.25v18.900000000000002h-6.25Z" style="fill: #154866;"></path><path d="M0,379.05000000000007h10v18.900000000000002h-10Z" style="fill: #154866;"></path><path d="M0,442.05000000000007h10v18.900000000000002h-10Z" style="fill: #154866;"></path><path d="M0,463.05000000000007h8.75v18.900000000000002h-8.75Z" style="fill: #154866;"></path><path d="M6.25,484.05000000000007h10v18.900000000000002h-10Z" style="fill: #154866;"></path><path d="M0,505.05000000000007h16.25v18.900000000000002h-16.25Z" style="fill: #154866;"></path><path d="M0,526.0500000000001h8.75v18.900000000000002h-8.75Z" style="fill: #154866;"></path><path d="M0,547.0500000000001h11.25v18.900000000000002h-11.25Z" style="fill: #154866;"></path><path d="M0,568.0500000000001h6.25v18.900000000000002h-6.25Z" style="fill: #154866;"></path><path d="M0,589.0500000000001h6.25v18.900000000000002h-6.25Z" style="fill: #154866;"></path><path d="M0,610.0500000000001h13.750000000000002v18.900000000000002h-13.750000000000002Z" style="fill: #154866;"></path><path d="M0,673.0500000000001h7.5v18.900000000000002h-7.5Z" style="fill: #154866;"></path><path d="M0,694.0500000000001h12.5v18.900000000000002h-12.5Z" style="fill: #154866;"></path><path d="M0,715.0500000000001h12.5v18.900000000000002h-12.5Z" style="fill: #154866;"></path><path d="M0,736.0500000000001h8.75v18.900000000000002h-8.75Z" style="fill: #154866;"></path><path d="M6.25,757.0500000000001h8.75v18.900000000000002h-8.75Z" style="fill: #154866;"></path><path d="M0,778.0500000000001h10v18.900000000000002h-10Z" style="fill: #154866;"></path><path d="M0,799.0500000000001h8.75v18.900000000000002h-8.75Z" style="fill: #154866;"></path><path d="M8.75,820.0500000000001h12.5v18.900000000000002h-12.5Z" style="fill: #154866;"></path><path d="M0,841.0500000000001h10v18.900000000000002h-10Z" style="fill: #154866;"></path><path d="M0,883.0500000000001h10v18.900000000000002h-10Z" style="fill: #154866;"></path><path d="M0,925.0500000000001h10v18.900000000000002h-10Z" style="fill: #154866;"></path><path d="M0,484.05000000000007h6.25v18.900000000000002h-6.25Z" style="fill: #666666;"></path><path d="M0,757.0500000000001h6.25v18.900000000000002h-6.25Z" style="fill: #666666;"></path><path d="M0,820.0500000000001h8.75v18.900000000000002h-8.75Z" style="fill: #666666;"></path></g><g class="mark-group role-legend"><g transform="translate(218,0)"><path class="background" d="M0,0h59v158h-59Z" style="pointer-events: none; fill: none;"></path><g><g class="mark-group role-legend-entry"><g transform="translate(1,17)"><path class="background" d="M0,0h0v0h0Z" style="pointer-events: none; fill: none;"></path><g><g class="mark-group role-scope"><g transform="translate(0,0)"><path class="background" d="M0,0h56.36666488647461v11.5h-56.36666488647461Z" style="pointer-events: none; fill: none; opacity: 1;"></path><g><g class="mark-symbol role-legend-symbol" style="pointer-events: none;"><path transform="translate(5.5,5.5)" d="M-2.7386127875258306,-2.7386127875258306h5.477225575051661v5.477225575051661h-5.477225575051661Z" style="fill: #ab5787; stroke-width: 1.5; opacity: 1;"></path></g><g class="mark-text role-legend-label" style="pointer-events: none;"><text text-anchor="start" transform="translate(15,8.5)" style="font-family: sans-serif; font-size: 11px; fill: #000; opacity: 1;">03-2020</text></g></g></g><g transform="translate(0,16)"><path class="background" d="M0,0h56.36666488647461v11.5h-56.36666488647461Z" style="pointer-events: none; fill: none; opacity: 1;"></path><g><g class="mark-symbol role-legend-symbol" style="pointer-events: none;"><path transform="translate(5.5,5.5)" d="M-2.7386127875258306,-2.7386127875258306h5.477225575051661v5.477225575051661h-5.477225575051661Z" style="fill: #51b2e5; stroke-width: 1.5; opacity: 1;"></path></g><g class="mark-text role-legend-label" style="pointer-events: none;"><text text-anchor="start" transform="translate(15,8.5)" style="font-family: sans-serif; font-size: 11px; fill: #000; opacity: 1;">04-2020</text></g></g></g><g transform="translate(0,32)"><path class="background" d="M0,0h56.36666488647461v11.5h-56.36666488647461Z" style="pointer-events: none; fill: none; opacity: 1;"></path><g><g class="mark-symbol role-legend-symbol" style="pointer-events: none;"><path transform="translate(5.5,5.5)" d="M-2.7386127875258306,-2.7386127875258306h5.477225575051661v5.477225575051661h-5.477225575051661Z" style="fill: #703c5c; stroke-width: 1.5; opacity: 1;"></path></g><g class="mark-text role-legend-label" style="pointer-events: none;"><text text-anchor="start" transform="translate(15,8.5)" style="font-family: sans-serif; font-size: 11px; fill: #000; opacity: 1;">05-2020</text></g></g></g><g transform="translate(0,48)"><path class="background" d="M0,0h56.36666488647461v11.5h-56.36666488647461Z" style="pointer-events: none; fill: none; opacity: 1;"></path><g><g class="mark-symbol role-legend-symbol" style="pointer-events: none;"><path transform="translate(5.5,5.5)" d="M-2.7386127875258306,-2.7386127875258306h5.477225575051661v5.477225575051661h-5.477225575051661Z" style="fill: #168dd9; stroke-width: 1.5; opacity: 1;"></path></g><g class="mark-text role-legend-label" style="pointer-events: none;"><text text-anchor="start" transform="translate(15,8.5)" style="font-family: sans-serif; font-size: 11px; fill: #000; opacity: 1;">06-2020</text></g></g></g><g transform="translate(0,64)"><path class="background" d="M0,0h56.36666488647461v11.5h-56.36666488647461Z" style="pointer-events: none; fill: none; opacity: 1;"></path><g><g class="mark-symbol role-legend-symbol" style="pointer-events: none;"><path transform="translate(5.5,5.5)" d="M-2.7386127875258306,-2.7386127875258306h5.477225575051661v5.477225575051661h-5.477225575051661Z" style="fill: #d190b6; stroke-width: 1.5; opacity: 1;"></path></g><g class="mark-text role-legend-label" style="pointer-events: none;"><text text-anchor="start" transform="translate(15,8.5)" style="font-family: sans-serif; font-size: 11px; fill: #000; opacity: 1;">07-2020</text></g></g></g><g transform="translate(0,80)"><path class="background" d="M0,0h56.36666488647461v11.5h-56.36666488647461Z" style="pointer-events: none; fill: none; opacity: 1;"></path><g><g class="mark-symbol role-legend-symbol" style="pointer-events: none;"><path transform="translate(5.5,5.5)" d="M-2.7386127875258306,-2.7386127875258306h5.477225575051661v5.477225575051661h-5.477225575051661Z" style="fill: #00609f; stroke-width: 1.5; opacity: 1;"></path></g><g class="mark-text role-legend-label" style="pointer-events: none;"><text text-anchor="start" transform="translate(15,8.5)" style="font-family: sans-serif; font-size: 11px; fill: #000; opacity: 1;">08-2020</text></g></g></g><g transform="translate(0,96)"><path class="background" d="M0,0h56.36666488647461v11.5h-56.36666488647461Z" style="pointer-events: none; fill: none; opacity: 1;"></path><g><g class="mark-symbol role-legend-symbol" style="pointer-events: none;"><path transform="translate(5.5,5.5)" d="M-2.7386127875258306,-2.7386127875258306h5.477225575051661v5.477225575051661h-5.477225575051661Z" style="fill: #d365ba; stroke-width: 1.5; opacity: 1;"></path></g><g class="mark-text role-legend-label" style="pointer-events: none;"><text text-anchor="start" transform="translate(15,8.5)" style="font-family: sans-serif; font-size: 11px; fill: #000; opacity: 1;">09-2020</text></g></g></g><g transform="translate(0,112)"><path class="background" d="M0,0h56.36666488647461v11.5h-56.36666488647461Z" style="pointer-events: none; fill: none; opacity: 1;"></path><g><g class="mark-symbol role-legend-symbol" style="pointer-events: none;"><path transform="translate(5.5,5.5)" d="M-2.7386127875258306,-2.7386127875258306h5.477225575051661v5.477225575051661h-5.477225575051661Z" style="fill: #154866; stroke-width: 1.5; opacity: 1;"></path></g><g class="mark-text role-legend-label" style="pointer-events: none;"><text text-anchor="start" transform="translate(15,8.5)" style="font-family: sans-serif; font-size: 11px; fill: #000; opacity: 1;">10-2020</text></g></g></g><g transform="translate(0,128)"><path class="background" d="M0,0h56.36666488647461v11.5h-56.36666488647461Z" style="pointer-events: none; fill: none; opacity: 1;"></path><g><g class="mark-symbol role-legend-symbol" style="pointer-events: none;"><path transform="translate(5.5,5.5)" d="M-2.7386127875258306,-2.7386127875258306h5.477225575051661v5.477225575051661h-5.477225575051661Z" style="fill: #666666; stroke-width: 1.5; opacity: 1;"></path></g><g class="mark-text role-legend-label" style="pointer-events: none;"><text text-anchor="start" transform="translate(15,8.5)" style="font-family: sans-serif; font-size: 11px; fill: #000; opacity: 1;">11-2020</text></g></g></g></g></g></g></g><g class="mark-text role-legend-title" style="pointer-events: none;"><text text-anchor="start" transform="translate(1,10)" style="font-family: sans-serif; font-size: 11px; font-weight: bold; fill: #000; opacity: 1;">month</text></g></g></g></g><g class="mark-group role-axis"><g transform="translate(0.5,1071.5)"><path class="background" d="M0,0h0v0h0Z" style="pointer-events: none; fill: none;"></path><g><g class="mark-rule role-axis-tick" style="pointer-events: none;"><line transform="translate(0,0)" x2="0" y2="10" style="fill: none; stroke: #979797; stroke-width: 0.2; opacity: 1;"></line><line transform="translate(63,0)" x2="0" y2="10" style="fill: none; stroke: #979797; stroke-width: 0.2; opacity: 1;"></line><line transform="translate(125,0)" x2="0" y2="10" style="fill: none; stroke: #979797; stroke-width: 0.2; opacity: 1;"></line><line transform="translate(188,0)" x2="0" y2="10" style="fill: none; stroke: #979797; stroke-width: 0.2; opacity: 1;"></line></g><g class="mark-text role-axis-label" style="pointer-events: none;"><text text-anchor="start" transform="translate(0,20)" style="font-family: sans-serif; font-size: 10px; fill: #979797; opacity: 1;">0</text><text text-anchor="middle" transform="translate(62.5,20)" style="font-family: sans-serif; font-size: 10px; fill: #979797; opacity: 1;">50</text><text text-anchor="middle" transform="translate(125,20)" style="font-family: sans-serif; font-size: 10px; fill: #979797; opacity: 1;">100</text><text text-anchor="middle" transform="translate(187.5,20)" style="font-family: sans-serif; font-size: 10px; fill: #979797; opacity: 1;">150</text></g><g class="mark-rule role-axis-domain" style="pointer-events: none;"><line transform="translate(0,0)" x2="200" y2="0" style="fill: none; stroke: #979797; stroke-width: 0.5; opacity: 1;"></line></g><g class="mark-text role-axis-title" style="pointer-events: none;"><text text-anchor="middle" transform="translate(100,36)" style="font-family: sans-serif; font-size: 11px; font-weight: bold; fill: #979797; opacity: 1;">count</text></g></g></g></g><g class="mark-group role-axis"><g transform="translate(0.5,0.5)"><path class="background" d="M0,0h0v0h0Z" style="pointer-events: none; fill: none;"></path><g><g class="mark-rule role-axis-tick" style="pointer-events: none;"><line transform="translate(0,10)" x2="0" y2="0" style="fill: none; stroke: #979797; stroke-width: 0.2; opacity: 1;"></line><line transform="translate(0,31)" x2="0" y2="0" style="fill: none; stroke: #979797; stroke-width: 0.2; opacity: 1;"></line><line transform="translate(0,52)" x2="0" y2="0" style="fill: none; stroke: #979797; stroke-width: 0.2; opacity: 1;"></line><line transform="translate(0,73)" x2="0" y2="0" style="fill: none; stroke: #979797; stroke-width: 0.2; opacity: 1;"></line><line transform="translate(0,94)" x2="0" y2="0" style="fill: none; stroke: #979797; stroke-width: 0.2; opacity: 1;"></line><line transform="translate(0,115)" x2="0" y2="0" style="fill: none; stroke: #979797; stroke-width: 0.2; opacity: 1;"></line><line transform="translate(0,136)" x2="0" y2="0" style="fill: none; stroke: #979797; stroke-width: 0.2; opacity: 1;"></line><line transform="translate(0,157)" x2="0" y2="0" style="fill: none; stroke: #979797; stroke-width: 0.2; opacity: 1;"></line><line transform="translate(0,178)" x2="0" y2="0" style="fill: none; stroke: #979797; stroke-width: 0.2; opacity: 1;"></line><line transform="translate(0,199)" x2="0" y2="0" style="fill: none; stroke: #979797; stroke-width: 0.2; opacity: 1;"></line><line transform="translate(0,220)" x2="0" y2="0" style="fill: none; stroke: #979797; stroke-width: 0.2; opacity: 1;"></line><line transform="translate(0,241)" x2="0" y2="0" style="fill: none; stroke: #979797; stroke-width: 0.2; opacity: 1;"></line><line transform="translate(0,262)" x2="0" y2="0" style="fill: none; stroke: #979797; stroke-width: 0.2; opacity: 1;"></line><line transform="translate(0,283)" x2="0" y2="0" style="fill: none; stroke: #979797; stroke-width: 0.2; opacity: 1;"></line><line transform="translate(0,304)" x2="0" y2="0" style="fill: none; stroke: #979797; stroke-width: 0.2; opacity: 1;"></line><line transform="translate(0,325)" x2="0" y2="0" style="fill: none; stroke: #979797; stroke-width: 0.2; opacity: 1;"></line><line transform="translate(0,346)" x2="0" y2="0" style="fill: none; stroke: #979797; stroke-width: 0.2; opacity: 1;"></line><line transform="translate(0,367)" x2="0" y2="0" style="fill: none; stroke: #979797; stroke-width: 0.2; opacity: 1;"></line><line transform="translate(0,388)" x2="0" y2="0" style="fill: none; stroke: #979797; stroke-width: 0.2; opacity: 1;"></line><line transform="translate(0,409)" x2="0" y2="0" style="fill: none; stroke: #979797; stroke-width: 0.2; opacity: 1;"></line><line transform="translate(0,430)" x2="0" y2="0" style="fill: none; stroke: #979797; stroke-width: 0.2; opacity: 1;"></line><line transform="translate(0,451)" x2="0" y2="0" style="fill: none; stroke: #979797; stroke-width: 0.2; opacity: 1;"></line><line transform="translate(0,472)" x2="0" y2="0" style="fill: none; stroke: #979797; stroke-width: 0.2; opacity: 1;"></line><line transform="translate(0,493)" x2="0" y2="0" style="fill: none; stroke: #979797; stroke-width: 0.2; opacity: 1;"></line><line transform="translate(0,514)" x2="0" y2="0" style="fill: none; stroke: #979797; stroke-width: 0.2; opacity: 1;"></line><line transform="translate(0,535)" x2="0" y2="0" style="fill: none; stroke: #979797; stroke-width: 0.2; opacity: 1;"></line><line transform="translate(0,556)" x2="0" y2="0" style="fill: none; stroke: #979797; stroke-width: 0.2; opacity: 1;"></line><line transform="translate(0,577)" x2="0" y2="0" style="fill: none; stroke: #979797; stroke-width: 0.2; opacity: 1;"></line><line transform="translate(0,598)" x2="0" y2="0" style="fill: none; stroke: #979797; stroke-width: 0.2; opacity: 1;"></line><line transform="translate(0,619)" x2="0" y2="0" style="fill: none; stroke: #979797; stroke-width: 0.2; opacity: 1;"></line><line transform="translate(0,640)" x2="0" y2="0" style="fill: none; stroke: #979797; stroke-width: 0.2; opacity: 1;"></line><line transform="translate(0,661)" x2="0" y2="0" style="fill: none; stroke: #979797; stroke-width: 0.2; opacity: 1;"></line><line transform="translate(0,682)" x2="0" y2="0" style="fill: none; stroke: #979797; stroke-width: 0.2; opacity: 1;"></line><line transform="translate(0,703)" x2="0" y2="0" style="fill: none; stroke: #979797; stroke-width: 0.2; opacity: 1;"></line><line transform="translate(0,724)" x2="0" y2="0" style="fill: none; stroke: #979797; stroke-width: 0.2; opacity: 1;"></line><line transform="translate(0,745)" x2="0" y2="0" style="fill: none; stroke: #979797; stroke-width: 0.2; opacity: 1;"></line><line transform="translate(0,766)" x2="0" y2="0" style="fill: none; stroke: #979797; stroke-width: 0.2; opacity: 1;"></line><line transform="translate(0,787)" x2="0" y2="0" style="fill: none; stroke: #979797; stroke-width: 0.2; opacity: 1;"></line><line transform="translate(0,808)" x2="0" y2="0" style="fill: none; stroke: #979797; stroke-width: 0.2; opacity: 1;"></line><line transform="translate(0,829)" x2="0" y2="0" style="fill: none; stroke: #979797; stroke-width: 0.2; opacity: 1;"></line><line transform="translate(0,850)" x2="0" y2="0" style="fill: none; stroke: #979797; stroke-width: 0.2; opacity: 1;"></line><line transform="translate(0,871)" x2="0" y2="0" style="fill: none; stroke: #979797; stroke-width: 0.2; opacity: 1;"></line><line transform="translate(0,892)" x2="0" y2="0" style="fill: none; stroke: #979797; stroke-width: 0.2; opacity: 1;"></line><line transform="translate(0,913)" x2="0" y2="0" style="fill: none; stroke: #979797; stroke-width: 0.2; opacity: 1;"></line><line transform="translate(0,934)" x2="0" y2="0" style="fill: none; stroke: #979797; stroke-width: 0.2; opacity: 1;"></line><line transform="translate(0,955)" x2="0" y2="0" style="fill: none; stroke: #979797; stroke-width: 0.2; opacity: 1;"></line><line transform="translate(0,976)" x2="0" y2="0" style="fill: none; stroke: #979797; stroke-width: 0.2; opacity: 1;"></line><line transform="translate(0,997)" x2="0" y2="0" style="fill: none; stroke: #979797; stroke-width: 0.2; opacity: 1;"></line><line transform="translate(0,1018)" x2="0" y2="0" style="fill: none; stroke: #979797; stroke-width: 0.2; opacity: 1;"></line><line transform="translate(0,1039)" x2="0" y2="0" style="fill: none; stroke: #979797; stroke-width: 0.2; opacity: 1;"></line><line transform="translate(0,1060)" x2="0" y2="0" style="fill: none; stroke: #979797; stroke-width: 0.2; opacity: 1;"></line></g><g class="mark-text role-axis-label" style="pointer-events: none;"><text text-anchor="end" transform="translate(-2,12.50000000000007)" style="font-family: sans-serif; font-size: 10px; fill: #979797; opacity: 1;">50</text><text text-anchor="end" transform="translate(-2,33.50000000000007)" style="font-family: sans-serif; font-size: 10px; fill: #979797; opacity: 1;">51</text><text text-anchor="end" transform="translate(-2,54.50000000000007)" style="font-family: sans-serif; font-size: 10px; fill: #979797; opacity: 1;">52</text><text text-anchor="end" transform="translate(-2,75.50000000000007)" style="font-family: sans-serif; font-size: 10px; fill: #979797; opacity: 1;">53</text><text text-anchor="end" transform="translate(-2,96.50000000000007)" style="font-family: sans-serif; font-size: 10px; fill: #979797; opacity: 1;">54</text><text text-anchor="end" transform="translate(-2,117.50000000000007)" style="font-family: sans-serif; font-size: 10px; fill: #979797; opacity: 1;">55</text><text text-anchor="end" transform="translate(-2,138.50000000000006)" style="font-family: sans-serif; font-size: 10px; fill: #979797; opacity: 1;">56</text><text text-anchor="end" transform="translate(-2,159.50000000000006)" style="font-family: sans-serif; font-size: 10px; fill: #979797; opacity: 1;">57</text><text text-anchor="end" transform="translate(-2,180.50000000000006)" style="font-family: sans-serif; font-size: 10px; fill: #979797; opacity: 1;">58</text><text text-anchor="end" transform="translate(-2,201.50000000000006)" style="font-family: sans-serif; font-size: 10px; fill: #979797; opacity: 1;">59</text><text text-anchor="end" transform="translate(-2,222.50000000000006)" style="font-family: sans-serif; font-size: 10px; fill: #979797; opacity: 1;">60</text><text text-anchor="end" transform="translate(-2,243.50000000000006)" style="font-family: sans-serif; font-size: 10px; fill: #979797; opacity: 1;">61</text><text text-anchor="end" transform="translate(-2,264.50000000000006)" style="font-family: sans-serif; font-size: 10px; fill: #979797; opacity: 1;">62</text><text text-anchor="end" transform="translate(-2,285.50000000000006)" style="font-family: sans-serif; font-size: 10px; fill: #979797; opacity: 1;">63</text><text text-anchor="end" transform="translate(-2,306.50000000000006)" style="font-family: sans-serif; font-size: 10px; fill: #979797; opacity: 1;">64</text><text text-anchor="end" transform="translate(-2,327.50000000000006)" style="font-family: sans-serif; font-size: 10px; fill: #979797; opacity: 1;">65</text><text text-anchor="end" transform="translate(-2,348.50000000000006)" style="font-family: sans-serif; font-size: 10px; fill: #979797; opacity: 1;">66</text><text text-anchor="end" transform="translate(-2,369.50000000000006)" style="font-family: sans-serif; font-size: 10px; fill: #979797; opacity: 1;">67</text><text text-anchor="end" transform="translate(-2,390.50000000000006)" style="font-family: sans-serif; font-size: 10px; fill: #979797; opacity: 1;">68</text><text text-anchor="end" transform="translate(-2,411.50000000000006)" style="font-family: sans-serif; font-size: 10px; fill: #979797; opacity: 1;">69</text><text text-anchor="end" transform="translate(-2,432.50000000000006)" style="font-family: sans-serif; font-size: 10px; fill: #979797; opacity: 1;">70</text><text text-anchor="end" transform="translate(-2,453.50000000000006)" style="font-family: sans-serif; font-size: 10px; fill: #979797; opacity: 1;">71</text><text text-anchor="end" transform="translate(-2,474.50000000000006)" style="font-family: sans-serif; font-size: 10px; fill: #979797; opacity: 1;">72</text><text text-anchor="end" transform="translate(-2,495.50000000000006)" style="font-family: sans-serif; font-size: 10px; fill: #979797; opacity: 1;">73</text><text text-anchor="end" transform="translate(-2,516.5000000000001)" style="font-family: sans-serif; font-size: 10px; fill: #979797; opacity: 1;">74</text><text text-anchor="end" transform="translate(-2,537.5000000000001)" style="font-family: sans-serif; font-size: 10px; fill: #979797; opacity: 1;">75</text><text text-anchor="end" transform="translate(-2,558.5000000000001)" style="font-family: sans-serif; font-size: 10px; fill: #979797; opacity: 1;">76</text><text text-anchor="end" transform="translate(-2,579.5000000000001)" style="font-family: sans-serif; font-size: 10px; fill: #979797; opacity: 1;">77</text><text text-anchor="end" transform="translate(-2,600.5000000000001)" style="font-family: sans-serif; font-size: 10px; fill: #979797; opacity: 1;">78</text><text text-anchor="end" transform="translate(-2,621.5000000000001)" style="font-family: sans-serif; font-size: 10px; fill: #979797; opacity: 1;">79</text><text text-anchor="end" transform="translate(-2,642.5000000000001)" style="font-family: sans-serif; font-size: 10px; fill: #979797; opacity: 1;">80</text><text text-anchor="end" transform="translate(-2,663.5000000000001)" style="font-family: sans-serif; font-size: 10px; fill: #979797; opacity: 1;">81</text><text text-anchor="end" transform="translate(-2,684.5000000000001)" style="font-family: sans-serif; font-size: 10px; fill: #979797; opacity: 1;">82</text><text text-anchor="end" transform="translate(-2,705.5000000000001)" style="font-family: sans-serif; font-size: 10px; fill: #979797; opacity: 1;">83</text><text text-anchor="end" transform="translate(-2,726.5000000000001)" style="font-family: sans-serif; font-size: 10px; fill: #979797; opacity: 1;">84</text><text text-anchor="end" transform="translate(-2,747.5000000000001)" style="font-family: sans-serif; font-size: 10px; fill: #979797; opacity: 1;">85</text><text text-anchor="end" transform="translate(-2,768.5000000000001)" style="font-family: sans-serif; font-size: 10px; fill: #979797; opacity: 1;">86</text><text text-anchor="end" transform="translate(-2,789.5000000000001)" style="font-family: sans-serif; font-size: 10px; fill: #979797; opacity: 1;">87</text><text text-anchor="end" transform="translate(-2,810.5000000000001)" style="font-family: sans-serif; font-size: 10px; fill: #979797; opacity: 1;">88</text><text text-anchor="end" transform="translate(-2,831.5000000000001)" style="font-family: sans-serif; font-size: 10px; fill: #979797; opacity: 1;">89</text><text text-anchor="end" transform="translate(-2,852.5000000000001)" style="font-family: sans-serif; font-size: 10px; fill: #979797; opacity: 1;">90</text><text text-anchor="end" transform="translate(-2,873.5000000000001)" style="font-family: sans-serif; font-size: 10px; fill: #979797; opacity: 1;">91</text><text text-anchor="end" transform="translate(-2,894.5000000000001)" style="font-family: sans-serif; font-size: 10px; fill: #979797; opacity: 1;">92</text><text text-anchor="end" transform="translate(-2,915.5000000000001)" style="font-family: sans-serif; font-size: 10px; fill: #979797; opacity: 1;">93</text><text text-anchor="end" transform="translate(-2,936.5000000000001)" style="font-family: sans-serif; font-size: 10px; fill: #979797; opacity: 1;">94</text><text text-anchor="end" transform="translate(-2,957.5000000000001)" style="font-family: sans-serif; font-size: 10px; fill: #979797; opacity: 1;">95</text><text text-anchor="end" transform="translate(-2,978.5000000000001)" style="font-family: sans-serif; font-size: 10px; fill: #979797; opacity: 1;">96</text><text text-anchor="end" transform="translate(-2,999.5000000000001)" style="font-family: sans-serif; font-size: 10px; fill: #979797; opacity: 1;">97</text><text text-anchor="end" transform="translate(-2,1020.5000000000001)" style="font-family: sans-serif; font-size: 10px; fill: #979797; opacity: 1;">98</text><text text-anchor="end" transform="translate(-2,1041.5000000000002)" style="font-family: sans-serif; font-size: 10px; fill: #979797; opacity: 1;">99</text><text text-anchor="end" transform="translate(-2,1062.5000000000002)" style="font-family: sans-serif; font-size: 10px; fill: #979797; opacity: 1;">100</text></g><g class="mark-text role-axis-title" style="pointer-events: none;"><text text-anchor="middle" transform="translate(-34,535.5) rotate(-90) translate(0,-2)" style="font-family: sans-serif; font-size: 11px; font-weight: bold; fill: #979797; opacity: 1;">age</text></g></g></g></g></g></g></g></g></svg>