<svg class="marks" width="334" height="848" viewBox="0 0 334 848" version="1.1" xmlns="http://www.w3.org/2000/svg" xmlns:xlink="http://www.w3.org/1999/xlink"><rect width="334" height="848" style="fill: #f9f9f9;"></rect><g transform="translate(52,5)"><g class="mark-group role-frame root"><g transform="translate(0,0)"><path class="background" d="M0.5,0.5h200v798h-200Z" style="fill: none; stroke: #ddd;"></path><g><g class="mark-group role-axis"><g transform="translate(0.5,798.5)"><path class="background" d="M0,0h0v0h0Z" style="pointer-events: none; fill: none;"></path><g><g class="mark-rule role-axis-grid" style="pointer-events: none;"><line transform="translate(0,0)" x2="0" y2="-798" style="fill: none; stroke: #ddd; stroke-width: 0.2; opacity: 1;"></line><line transform="translate(33,0)" x2="0" y2="-798" style="fill: none; stroke: #ddd; stroke-width: 0.2; opacity: 1;"></line><line transform="translate(67,0)" x2="0" y2="-798" style="fill: none; stroke: #ddd; stroke-width: 0.2; opacity: 1;"></line><line transform="translate(100,0)" x2="0" y2="-798" style="fill: none; stroke: #ddd; stroke-width: 0.2; opacity: 1;"></line><line transform="translate(133,0)" x2="0" y2="-798" style="fill: none; stroke: #ddd; stroke-width: 0.2; opacity: 1;"></line><line transform="translate(167,0)" x2="0" y2="-798" style="fill: none; stroke: #ddd; stroke-width: 0.2; opacity: 1;"></line><line transform="translate(200,0)" x2="0" y2="-798" style="fill: none; stroke: #ddd; stroke-width: 0.2; opacity: 1;"></line></g></g></g></g><g class="mark-rect role-mark marks"><path d="M0,1.0500000000000114h33.33333333333333v18.900000000000002h-33.33333333333333Z" style="fill: #ab5787;"></path><path d="M0,43.05000000000001h40v18.900000000000002h-40Z" style="fill: #ab5787;"></path><path d="M33.33333333333333,64.05000000000001h53.33333333333334v18.900000000000002h-53.33333333333334Z" style="fill: #ab5787;"></path><path d="M0,85.05000000000001h33.33333333333333v18.900000000000002h-33.33333333333333Z" style="fill: #ab5787;"></path><path d="M73.33333333333333,148.05h40v18.900000000000002h-40Z" style="fill: #ab5787;"></path><path d="M0,169.05h33.33333333333333v18.900000000000002h-33.33333333333333Z" style="fill: #ab5787;"></path><path d="M93.33333333333333,211.05h53.33333333333333v18.900000000000002h-53.33333333333333Z" style="fill: #ab5787;"></path><path d="M40,232.05h53.33333333333333v18.900000000000002h-53.33333333333333Z" style="fill: #ab5787;"></path><path d="M0,253.05h66.66666666666666v18.900000000000002h-66.66666666666666Z" style="fill: #ab5787;"></path><path d="M86.66666666666667,274.05h53.33333333333333v18.900000000000002h-53.33333333333333Z" style="fill: #ab5787;"></path><path d="M140,337.05h40v18.900000000000002h-40Z" style="fill: #ab5787;"></path><path d="M60,379.05h40v18.900000000000002h-40Z" style="fill: #ab5787;"></path><path d="M66.66666666666666,400.05h53.33333333333334v18.900000000000002h-53.33333333333334Z" style="fill: #ab5787;"></path><path d="M33.33333333333333,421.05h33.33333333333333v18.900000000000002h-33.33333333333333Z" style="fill: #ab5787;"></path><path d="M113.33333333333333,442.05h46.66666666666667v18.900000000000002h-46.66666666666667Z" style="fill: #ab5787;"></path><path d="M0,463.05h40v18.900000000000002h-40Z" style="fill: #ab5787;"></path><path d="M66.66666666666666,526.05h46.66666666666667v18.900000000000002h-46.66666666666667Z" style="fill: #ab5787;"></path><path d="M86.66666666666667,568.05h53.33333333333333v18.900000000000002h-53.33333333333333Z" style="fill: #ab5787;"></path><path d="M120,589.05h46.666666666666686v18.900000000000002h-46.666666666666686Z" style="fill: #ab5787;"></path><path d="M93.33333333333333,610.05h33.33333333333333v18.900000000000002h-33.33333333333333Z" style="fill: #ab5787;"></path><path d="M46.666666666666664,631.05h33.333333333333336v18.900000000000002h-33.333333333333336Z" style="fill: #ab5787;"></path><path d="M160,652.05h33.33333333333334v18.900000000000002h-33.33333333333334Z" style="fill: #ab5787;"></path><path d="M0,694.05h66.66666666666666v18.900000000000002h-66.66666666666666Z" style="fill: #ab5787;"></path><path d="M53.333333333333336,715.05h33.333333333333336v18.900000000000002h-33.333333333333336Z" style="fill: #ab5787;"></path><path d="M0,736.05h33.33333333333333v18.900000000000002h-33.33333333333333Z" style="fill: #ab5787;"></path><path d="M0,778.05h33.33333333333333v18.900000000000002h-33.33333333333333Z" style="fill: #ab5787;"></path><path d="M33.33333333333333,106.05000000000001h40v18.900000000000002h-40Z" style="fill: #51b2e5;"></path><path d="M66.66666666666666,190.05h33.33333333333334v18.900000000000002h-33.33333333333334Z" style="fill: #51b2e5;"></path><path d="M0,232.05h40v18.900000000000002h-40Z" style="fill: #51b2e5;"></path><path d="M46.666666666666664,295.05h46.666666666666664v18.900000000000002h-46.666666666666664Z" style="fill: #51b2e5;"></path><path d="M120,316.05h46.666666666666686v18.900000000000002h-46.666666666666686Z" style="fill: #51b2e5;"></path><path d="M33.33333333333333,400.05h33.33333333333333v18.900000000000002h-33.33333333333333Z" style="fill: #51b2e5;"></path><path d="M73.33333333333333,442.05h40v18.900000000000002h-40Z" style="fill: #51b2e5;"></path><path d="M33.33333333333333,484.05h33.33333333333333v18.900000000000002h-33.33333333333333Z" style="fill: #51b2e5;"></path><path d="M66.66666666666666,547.05h33.33333333333334v18.900000000000002h-33.33333333333334Z" style="fill: #51b2e5;"></path><path d="M46.666666666666664,568.05h40.00000000000001v18.900000000000002h-40.00000000000001Z" style="fill: #51b2e5;"></path><path d="M80,589.05h40v18.900000000000002h-40Z" style="fill: #51b2e5;"></path><path d="M113.33333333333333,652.05h46.66666666666667v18.900000000000002h-46.66666666666667Z" style="fill: #51b2e5;"></path><path d="M33.33333333333333,148.05h40v18.900000000000002h-40Z" style="fill: #703c5c;"></path><path d="M33.33333333333333,190.05h33.33333333333333v18.900000000000002h-33.33333333333333Z" style="fill: #703c5c;"></path><path d="M53.333333333333336,211.05h39.99999999999999v18.900000000000002h-39.99999999999999Z" style="fill: #703c5c;"></path><path d="M53.333333333333336,274.05h33.333333333333336v18.900000000000002h-33.333333333333336Z" style="fill: #703c5c;"></path><path d="M86.66666666666667,316.05h33.33333333333333v18.900000000000002h-33.33333333333333Z" style="fill: #703c5c;"></path><path d="M86.66666666666667,337.05h53.33333333333333v18.900000000000002h-53.33333333333333Z" style="fill: #703c5c;"></path><path d="M0,484.05h33.33333333333333v18.900000000000002h-33.33333333333333Z" style="fill: #703c5c;"></path><path d="M53.333333333333336,610.05h39.99999999999999v18.900000000000002h-39.99999999999999Z" style="fill: #703c5c;"></path><path d="M53.333333333333336,673.05h39.99999999999999v18.900000000000002h-39.99999999999999Z" style="fill: #703c5c;"></path><path d="M0,22.05000000000001h60v18.900000000000002h-60Z" style="fill: #168dd9;"></path><path d="M0,64.05000000000001h33.33333333333333v18.900000000000002h-33.33333333333333Z" style="fill: #168dd9;"></path><path d="M0,106.05000000000001h33.33333333333333v18.900000000000002h-33.33333333333333Z" style="fill: #168dd9;"></path><path d="M0,127.05000000000001h53.333333333333336v18.900000000000002h-53.333333333333336Z" style="fill: #168dd9;"></path><path d="M0,148.05h33.33333333333333v18.900000000000002h-33.33333333333333Z" style="fill: #168dd9;"></path><path d="M0,190.05h33.33333333333333v18.900000000000002h-33.33333333333333Z" style="fill: #168dd9;"></path><path d="M0,211.05h53.333333333333336v18.900000000000002h-53.333333333333336Z" style="fill: #168dd9;"></path><path d="M0,274.05h53.333333333333336v18.900000000000002h-53.333333333333336Z" style="fill: #168dd9;"></path><path d="M0,295.05h46.666666666666664v18.900000000000002h-46.666666666666664Z" style="fill: #168dd9;"></path><path d="M33.33333333333333,316.05h53.33333333333334v18.900000000000002h-53.33333333333334Z" style="fill: #168dd9;"></path><path d="M0,337.05h86.66666666666667v18.900000000000002h-86.66666666666667Z" style="fill: #168dd9;"></path><path d="M0,358.05h46.666666666666664v18.900000000000002h-46.666666666666664Z" style="fill: #168dd9;"></path><path d="M0,379.05h60v18.900000000000002h-60Z" style="fill: #168dd9;"></path><path d="M0,400.05h33.33333333333333v18.900000000000002h-33.33333333333333Z" style="fill: #168dd9;"></path><path d="M0,421.05h33.33333333333333v18.900000000000002h-33.33333333333333Z" style="fill: #168dd9;"></path><path d="M0,442.05h73.33333333333333v18.900000000000002h-73.33333333333333Z" style="fill: #168dd9;"></path><path d="M0,505.05h40v18.900000000000002h-40Z" style="fill: #168dd9;"></path><path d="M0,526.05h66.66666666666666v18.900000000000002h-66.66666666666666Z" style="fill: #168dd9;"></path><path d="M0,547.05h66.66666666666666v18.900000000000002h-66.66666666666666Z" style="fill: #168dd9;"></path><path d="M0,568.05h46.666666666666664v18.900000000000002h-46.666666666666664Z" style="fill: #168dd9;"></path><path d="M33.33333333333333,589.05h46.66666666666667v18.900000000000002h-46.66666666666667Z" style="fill: #168dd9;"></path><path d="M0,610.05h53.333333333333336v18.900000000000002h-53.333333333333336Z" style="fill: #168dd9;"></path><path d="M0,631.05h46.666666666666664v18.900000000000002h-46.666666666666664Z" style="fill: #168dd9;"></path><path d="M46.666666666666664,652.05h66.66666666666666v18.900000000000002h-66.66666666666666Z" style="fill: #168dd9;"></path><path d="M0,673.05h53.333333333333336v18.900000000000002h-53.333333333333336Z" style="fill: #168dd9;"></path><path d="M0,715.05h53.333333333333336v18.900000000000002h-53.333333333333336Z" style="fill: #168dd9;"></path><path d="M0,757.05h53.333333333333336v18.900000000000002h-53.333333333333336Z" style="fill: #168dd9;"></path><path d="M0,316.05h33.33333333333333v18.900000000000002h-33.33333333333333Z" style="fill: #d190b6;"></path><path d="M0,589.05h33.33333333333333v18.900000000000002h-33.33333333333333Z" style="fill: #d190b6;"></path><path d="M0,652.05h46.666666666666664v18.900000000000002h-46.666666666666664Z" style="fill: #d190b6;"></path></g><g class="mark-group role-legend"><g transform="translate(218,0)"><path class="background" d="M0,0h59v94h-59Z" style="pointer-events: none; fill: none;"></path><g><g class="mark-group role-legend-entry"><g transform="translate(1,17)"><path class="background" d="M0,0h0v0h0Z" style="pointer-events: none; fill: none;"></path><g><g class="mark-group role-scope"><g transform="translate(0,0)"><path class="background" d="M0,0h56.36666488647461v11.5h-56.36666488647461Z" style="pointer-events: none; fill: none; opacity: 1;"></path><g><g class="mark-symbol role-legend-symbol" style="pointer-events: none;"><path transform="translate(5.5,5.5)" d="M-2.7386127875258306,-2.7386127875258306h5.477225575051661v5.477225575051661h-5.477225575051661Z" style="fill: #ab5787; stroke-width: 1.5; opacity: 1;"></path></g><g class="mark-text role-legend-label" style="pointer-events: none;"><text text-anchor="start" transform="translate(15,8.5)" style="font-family: sans-serif; font-size: 11px; fill: #000; opacity: 1;">07-2020</text></g></g></g><g transform="translate(0,16)"><path class="background" d="M0,0h56.36666488647461v11.5h-56.36666488647461Z" style="pointer-events: none; fill: none; opacity: 1;"></path><g><g class="mark-symbol role-legend-symbol" style="pointer-events: none;"><path transform="translate(5.5,5.5)" d="M-2.7386127875258306,-2.7386127875258306h5.477225575051661v5.477225575051661h-5.477225575051661Z" style="fill: #51b2e5; stroke-width: 1.5; opacity: 1;"></path></g><g class="mark-text role-legend-label" style="pointer-events: none;"><text text-anchor="start" transform="translate(15,8.5)" style="font-family: sans-serif; font-size: 11px; fill: #000; opacity: 1;">08-2020</text></g></g></g><g transform="translate(0,32)"><path class="background" d="M0,0h56.36666488647461v11.5h-56.36666488647461Z" style="pointer-events: none; fill: none; opacity: 1;"></path><g><g class="mark-symbol role-legend-symbol" style="pointer-events: none;"><path transform="translate(5.5,5.5)" d="M-2.7386127875258306,-2.7386127875258306h5.477225575051661v5.477225575051661h-5.477225575051661Z" style="fill: #703c5c; stroke-width: 1.5; opacity: 1;"></path></g><g class="mark-text role-legend-label" style="pointer-events: none;"><text text-anchor="start" transform="translate(15,8.5)" style="font-family: sans-serif; font-size: 11px; fill: #000; opacity: 1;">09-2020</text></g></g></g><g transform="translate(0,48)"><path class="background" d="M0,0h56.36666488647461v11.5h-56.36666488647461Z" style="pointer-events: none; fill: none; opacity: 1;"></path><g><g class="mark-symbol role-legend-symbol" style="pointer-events: none;"><path transform="translate(5.5,5.5)" d="M-2.7386127875258306,-2.7386127875258306h5.477225575051661v5.477225575051661h-5.477225575051661Z" style="fill: #168dd9; stroke-width: 1.5; opacity: 1;"></path></g><g class="mark-text role-legend-label" style="pointer-events: none;"><text text-anchor="start" transform="translate(15,8.5)" style="font-family: sans-serif; font-size: 11px; fill: #000; opacity: 1;">10-2020</text></g></g></g><g transform="translate(0,64)"><path class="background" d="M0,0h56.36666488647461v11.5h-56.36666488647461Z" style="pointer-events: none; fill: none; opacity: 1;"></path><g><g class="mark-symbol role-legend-symbol" style="pointer-events: none;"><path transform="translate(5.5,5.5)" d="M-2.7386127875258306,-2.7386127875258306h5.477225575051661v5.477225575051661h-5.477225575051661Z" style="fill: #d190b6; stroke-width: 1.5; opacity: 1;"></path></g><g class="mark-text role-legend-label" style="pointer-events: none;"><text text-anchor="start" transform="translate(15,8.5)" style="font-family: sans-serif; font-size: 11px; fill: #000; opacity: 1;">11-2020</text></g></g></g></g></g></g></g><g class="mark-text role-legend-title" style="pointer-events: none;"><text text-anchor="start" transform="translate(1,10)" style="font-family: sans-serif; font-size: 11px; font-weight: bold; fill: #000; opacity: 1;">month</text></g></g></g></g><g class="mark-group role-axis"><g transform="translate(0.5,798.5)"><path class="background" d="M0,0h0v0h0Z" style="pointer-events: none; fill: none;"></path><g><g class="mark-rule role-axis-tick" style="pointer-events: none;"><line transform="translate(0,0)" x2="0" y2="10" style="fill: none; stroke: #979797; stroke-width: 0.2; opacity: 1;"></line><line transform="translate(33,0)" x2="0" y2="10" style="fill: none; stroke: #979797; stroke-width: 0.2; opacity: 1;"></line><line transform="translate(67,0)" x2="0" y2="10" style="fill: none; stroke: #979797; stroke-width: 0.2; opacity: 1;"></line><line transform="translate(100,0)" x2="0" y2="10" style="fill: none; stroke: #979797; stroke-width: 0.2; opacity: 1;"></line><line transform="translate(133,0)" x2="0" y2="10" style="fill: none; stroke: #979797; stroke-width: 0.2; opacity: 1;"></line><line transform="translate(167,0)" x2="0" y2="10" style="fill: none; stroke: #979797; stroke-width: 0.2; opacity: 1;"></line><line transform="translate(200,0)" x2="0" y2="10" style="fill: none; stroke: #979797; stroke-width: 0.2; opacity: 1;"></line></g><g class="mark-text role-axis-label" style="pointer-events: none;"><text text-anchor="start" transform="translate(0,20)" style="font-family: sans-serif; font-size: 10px; fill: #979797; opacity: 1;">0</text><text text-anchor="middle" transform="translate(33.33333333333333,20)" style="font-family: sans-serif; font-size: 10px; fill: #979797; opacity: 1;">5</text><text text-anchor="middle" transform="translate(66.66666666666666,20)" style="font-family: sans-serif; font-size: 10px; fill: #979797; opacity: 1;">10</text><text text-anchor="middle" transform="translate(100,20)" style="font-family: sans-serif; font-size: 10px; fill: #979797; opacity: 1;">15</text><text text-anchor="middle" transform="translate(133.33333333333331,20)" style="font-family: sans-serif; font-size: 10px; fill: #979797; opacity: 1;">20</text><text text-anchor="middle" transform="translate(166.66666666666669,20)" style="font-family: sans-serif; font-size: 10px; fill: #979797; opacity: 1;">25</text><text text-anchor="end" transform="translate(200,20)" style="font-family: sans-serif; font-size: 10px; fill: #979797; opacity: 1;">30</text></g><g class="mark-rule role-axis-domain" style="pointer-events: none;"><line transform="translate(0,0)" x2="200" y2="0" style="fill: none; stroke: #979797; stroke-width: 0.5; opacity: 1;"></line></g><g class="mark-text role-axis-title" style="pointer-events: none;"><text text-anchor="middle" transform="translate(100,36)" style="font-family: sans-serif; font-size: 11px; font-weight: bold; fill: #979797; opacity: 1;">count</text></g></g></g></g><g class="mark-group role-axis"><g transform="translate(0.5,0.5)"><path class="background" d="M0,0h0v0h0Z" style="pointer-events: none; fill: none;"></path><g><g class="mark-rule role-axis-tick" style="pointer-events: none;"><line transform="translate(0,10)" x2="0" y2="0" style="fill: none; stroke: #979797; stroke-width: 0.2; opacity: 1;"></line><line transform="translate(0,31)" x2="0" y2="0" style="fill: none; stroke: #979797; stroke-width: 0.2; opacity: 1;"></line><line transform="translate(0,52)" x2="0" y2="0" style="fill: none; stroke: #979797; stroke-width: 0.2; opacity: 1;"></line><line transform="translate(0,73)" x2="0" y2="0" style="fill: none; stroke: #979797; stroke-width: 0.2; opacity: 1;"></line><line transform="translate(0,94)" x2="0" y2="0" style="fill: none; stroke: #979797; stroke-width: 0.2; opacity: 1;"></line><line transform="translate(0,115)" x2="0" y2="0" style="fill: none; stroke: #979797; stroke-width: 0.2; opacity: 1;"></line><line transform="translate(0,136)" x2="0" y2="0" style="fill: none; stroke: #979797; stroke-width: 0.2; opacity: 1;"></line><line transform="translate(0,157)" x2="0" y2="0" style="fill: none; stroke: #979797; stroke-width: 0.2; opacity: 1;"></line><line transform="translate(0,178)" x2="0" y2="0" style="fill: none; stroke: #979797; stroke-width: 0.2; opacity: 1;"></line><line transform="translate(0,199)" x2="0" y2="0" style="fill: none; stroke: #979797; stroke-width: 0.2; opacity: 1;"></line><line transform="translate(0,220)" x2="0" y2="0" style="fill: none; stroke: #979797; stroke-width: 0.2; opacity: 1;"></line><line transform="translate(0,241)" x2="0" y2="0" style="fill: none; stroke: #979797; stroke-width: 0.2; opacity: 1;"></line><line transform="translate(0,262)" x2="0" y2="0" style="fill: none; stroke: #979797; stroke-width: 0.2; opacity: 1;"></line><line transform="translate(0,283)" x2="0" y2="0" style="fill: none; stroke: #979797; stroke-width: 0.2; opacity: 1;"></line><line transform="translate(0,304)" x2="0" y2="0" style="fill: none; stroke: #979797; stroke-width: 0.2; opacity: 1;"></line><line transform="translate(0,325)" x2="0" y2="0" style="fill: none; stroke: #979797; stroke-width: 0.2; opacity: 1;"></line><line transform="translate(0,346)" x2="0" y2="0" style="fill: none; stroke: #979797; stroke-width: 0.2; opacity: 1;"></line><line transform="translate(0,367)" x2="0" y2="0" style="fill: none; stroke: #979797; stroke-width: 0.2; opacity: 1;"></line><line transform="translate(0,388)" x2="0" y2="0" style="fill: none; stroke: #979797; stroke-width: 0.2; opacity: 1;"></line><line transform="translate(0,409)" x2="0" y2="0" style="fill: none; stroke: #979797; stroke-width: 0.2; opacity: 1;"></line><line transform="translate(0,430)" x2="0" y2="0" style="fill: none; stroke: #979797; stroke-width: 0.2; opacity: 1;"></line><line transform="translate(0,451)" x2="0" y2="0" style="fill: none; stroke: #979797; stroke-width: 0.2; opacity: 1;"></line><line transform="translate(0,472)" x2="0" y2="0" style="fill: none; stroke: #979797; stroke-width: 0.2; opacity: 1;"></line><line transform="translate(0,493)" x2="0" y2="0" style="fill: none; stroke: #979797; stroke-width: 0.2; opacity: 1;"></line><line transform="translate(0,514)" x2="0" y2="0" style="fill: none; stroke: #979797; stroke-width: 0.2; opacity: 1;"></line><line transform="translate(0,535)" x2="0" y2="0" style="fill: none; stroke: #979797; stroke-width: 0.2; opacity: 1;"></line><line transform="translate(0,556)" x2="0" y2="0" style="fill: none; stroke: #979797; stroke-width: 0.2; opacity: 1;"></line><line transform="translate(0,577)" x2="0" y2="0" style="fill: none; stroke: #979797; stroke-width: 0.2; opacity: 1;"></line><line transform="translate(0,598)" x2="0" y2="0" style="fill: none; stroke: #979797; stroke-width: 0.2; opacity: 1;"></line><line transform="translate(0,619)" x2="0" y2="0" style="fill: none; stroke: #979797; stroke-width: 0.2; opacity: 1;"></line><line transform="translate(0,640)" x2="0" y2="0" style="fill: none; stroke: #979797; stroke-width: 0.2; opacity: 1;"></line><line transform="translate(0,661)" x2="0" y2="0" style="fill: none; stroke: #979797; stroke-width: 0.2; opacity: 1;"></line><line transform="translate(0,682)" x2="0" y2="0" style="fill: none; stroke: #979797; stroke-width: 0.2; opacity: 1;"></line><line transform="translate(0,703)" x2="0" y2="0" style="fill: none; stroke: #979797; stroke-width: 0.2; opacity: 1;"></line><line transform="translate(0,724)" x2="0" y2="0" style="fill: none; stroke: #979797; stroke-width: 0.2; opacity: 1;"></line><line transform="translate(0,745)" x2="0" y2="0" style="fill: none; stroke: #979797; stroke-width: 0.2; opacity: 1;"></line><line transform="translate(0,766)" x2="0" y2="0" style="fill: none; stroke: #979797; stroke-width: 0.2; opacity: 1;"></line><line transform="translate(0,787)" x2="0" y2="0" style="fill: none; stroke: #979797; stroke-width: 0.2; opacity: 1;"></line></g><g class="mark-text role-axis-label" style="pointer-events: none;"><text text-anchor="end" transform="translate(-2,12.500000000000012)" style="font-family: sans-serif; font-size: 10px; fill: #979797; opacity: 1;">52</text><text text-anchor="end" transform="translate(-2,33.500000000000014)" style="font-family: sans-serif; font-size: 10px; fill: #979797; opacity: 1;">57</text><text text-anchor="end" transform="translate(-2,54.500000000000014)" style="font-family: sans-serif; font-size: 10px; fill: #979797; opacity: 1;">60</text><text text-anchor="end" transform="translate(-2,75.50000000000001)" style="font-family: sans-serif; font-size: 10px; fill: #979797; opacity: 1;">61</text><text text-anchor="end" transform="translate(-2,96.50000000000001)" style="font-family: sans-serif; font-size: 10px; fill: #979797; opacity: 1;">62</text><text text-anchor="end" transform="translate(-2,117.50000000000001)" style="font-family: sans-serif; font-size: 10px; fill: #979797; opacity: 1;">63</text><text text-anchor="end" transform="translate(-2,138.5)" style="font-family: sans-serif; font-size: 10px; fill: #979797; opacity: 1;">64</text><text text-anchor="end" transform="translate(-2,159.5)" style="font-family: sans-serif; font-size: 10px; fill: #979797; opacity: 1;">65</text><text text-anchor="end" transform="translate(-2,180.5)" style="font-family: sans-serif; font-size: 10px; fill: #979797; opacity: 1;">66</text><text text-anchor="end" transform="translate(-2,201.5)" style="font-family: sans-serif; font-size: 10px; fill: #979797; opacity: 1;">67</text><text text-anchor="end" transform="translate(-2,222.5)" style="font-family: sans-serif; font-size: 10px; fill: #979797; opacity: 1;">68</text><text text-anchor="end" transform="translate(-2,243.5)" style="font-family: sans-serif; font-size: 10px; fill: #979797; opacity: 1;">69</text><text text-anchor="end" transform="translate(-2,264.5)" style="font-family: sans-serif; font-size: 10px; fill: #979797; opacity: 1;">70</text><text text-anchor="end" transform="translate(-2,285.5)" style="font-family: sans-serif; font-size: 10px; fill: #979797; opacity: 1;">71</text><text text-anchor="end" transform="translate(-2,306.5)" style="font-family: sans-serif; font-size: 10px; fill: #979797; opacity: 1;">72</text><text text-anchor="end" transform="translate(-2,327.5)" style="font-family: sans-serif; font-size: 10px; fill: #979797; opacity: 1;">73</text><text text-anchor="end" transform="translate(-2,348.5)" style="font-family: sans-serif; font-size: 10px; fill: #979797; opacity: 1;">74</text><text text-anchor="end" transform="translate(-2,369.5)" style="font-family: sans-serif; font-size: 10px; fill: #979797; opacity: 1;">75</text><text text-anchor="end" transform="translate(-2,390.5)" style="font-family: sans-serif; font-size: 10px; fill: #979797; opacity: 1;">76</text><text text-anchor="end" transform="translate(-2,411.5)" style="font-family: sans-serif; font-size: 10px; fill: #979797; opacity: 1;">77</text><text text-anchor="end" transform="translate(-2,432.5)" style="font-family: sans-serif; font-size: 10px; fill: #979797; opacity: 1;">78</text><text text-anchor="end" transform="translate(-2,453.5)" style="font-family: sans-serif; font-size: 10px; fill: #979797; opacity: 1;">79</text><text text-anchor="end" transform="translate(-2,474.5)" style="font-family: sans-serif; font-size: 10px; fill: #979797; opacity: 1;">80</text><text text-anchor="end" transform="translate(-2,495.5)" style="font-family: sans-serif; font-size: 10px; fill: #979797; opacity: 1;">81</text><text text-anchor="end" transform="translate(-2,516.5)" style="font-family: sans-serif; font-size: 10px; fill: #979797; opacity: 1;">82</text><text text-anchor="end" transform="translate(-2,537.5)" style="font-family: sans-serif; font-size: 10px; fill: #979797; opacity: 1;">83</text><text text-anchor="end" transform="translate(-2,558.5)" style="font-family: sans-serif; font-size: 10px; fill: #979797; opacity: 1;">84</text><text text-anchor="end" transform="translate(-2,579.5)" style="font-family: sans-serif; font-size: 10px; fill: #979797; opacity: 1;">85</text><text text-anchor="end" transform="translate(-2,600.5)" style="font-family: sans-serif; font-size: 10px; fill: #979797; opacity: 1;">86</text><text text-anchor="end" transform="translate(-2,621.5)" style="font-family: sans-serif; font-size: 10px; fill: #979797; opacity: 1;">87</text><text text-anchor="end" transform="translate(-2,642.5)" style="font-family: sans-serif; font-size: 10px; fill: #979797; opacity: 1;">88</text><text text-anchor="end" transform="translate(-2,663.5)" style="font-family: sans-serif; font-size: 10px; fill: #979797; opacity: 1;">89</text><text text-anchor="end" transform="translate(-2,684.5)" style="font-family: sans-serif; font-size: 10px; fill: #979797; opacity: 1;">90</text><text text-anchor="end" transform="translate(-2,705.5)" style="font-family: sans-serif; font-size: 10px; fill: #979797; opacity: 1;">91</text><text text-anchor="end" transform="translate(-2,726.5)" style="font-family: sans-serif; font-size: 10px; fill: #979797; opacity: 1;">92</text><text text-anchor="end" transform="translate(-2,747.5)" style="font-family: sans-serif; font-size: 10px; fill: #979797; opacity: 1;">93</text><text text-anchor="end" transform="translate(-2,768.5)" style="font-family: sans-serif; font-size: 10px; fill: #979797; opacity: 1;">94</text><text text-anchor="end" transform="translate(-2,789.5)" style="font-family: sans-serif; font-size: 10px; fill: #979797; opacity: 1;">97</text></g><g class="mark-text role-axis-title" style="pointer-events: none;"><text text-anchor="middle" transform="translate(-34,399) rotate(-90) translate(0,-2)" style="font-family: sans-serif; font-size: 11px; font-weight: bold; fill: #979797; opacity: 1;">age</text></g></g></g></g></g></g></g></g></svg>