<svg class="marks" width="701" height="321" viewBox="0 0 701 321" version="1.1" xmlns="http://www.w3.org/2000/svg" xmlns:xlink="http://www.w3.org/1999/xlink"><rect width="701" height="321" style="fill: #f9f9f9;"></rect><g transform="translate(52,5)"><g class="mark-group role-frame root"><g transform="translate(0,0)"><path class="background" d="M0.5,0.5h567v200h-567Z" style="fill: none; stroke: #ddd;"></path><g><g class="mark-group role-axis"><g transform="translate(0.5,0.5)"><path class="background" d="M0,0h0v0h0Z" style="pointer-events: none; fill: none;"></path><g><g class="mark-rule role-axis-grid" style="pointer-events: none;"><line transform="translate(0,200)" x2="567" y2="0" style="fill: none; stroke: #ddd; stroke-width: 0.2; opacity: 1;"></line><line transform="translate(0,156)" x2="567" y2="0" style="fill: none; stroke: #ddd; stroke-width: 0.2; opacity: 1;"></line><line transform="translate(0,111)" x2="567" y2="0" style="fill: none; stroke: #ddd; stroke-width: 0.2; opacity: 1;"></line><line transform="translate(0,67)" x2="567" y2="0" style="fill: none; stroke: #ddd; stroke-width: 0.2; opacity: 1;"></line><line transform="translate(0,22)" x2="567" y2="0" style="fill: none; stroke: #ddd; stroke-width: 0.2; opacity: 1;"></line></g></g></g></g><g class="mark-rect role-mark marks"><path d="M1.0500000000000114,133.33333333333334h18.900000000000002v31.111111111111114h-18.900000000000002Z" style="fill: #ab5787;"></path><path d="M1.0500000000000114,164.44444444444446h18.900000000000002v35.55555555555554h-18.900000000000002Z" style="fill: #d190b6;"></path><path d="M22.05000000000001,164.44444444444446h18.900000000000002v35.55555555555554h-18.900000000000002Z" style="fill: #ab5787;"></path><path d="M43.05000000000001,177.77777777777777h18.900000000000002v22.22222222222223h-18.900000000000002Z" style="fill: #d190b6;"></path><path d="M64.05000000000001,173.33333333333334h18.900000000000002v26.666666666666657h-18.900000000000002Z" style="fill: #ab5787;"></path><path d="M85.05000000000001,177.77777777777777h18.900000000000002v22.22222222222223h-18.900000000000002Z" style="fill: #ab5787;"></path><path d="M106.05000000000001,22.22222222222223h18.900000000000002v48.888888888888886h-18.900000000000002Z" style="fill: #ab5787;"></path><path d="M106.05000000000001,71.11111111111111h18.900000000000002v35.55555555555556h-18.900000000000002Z" style="fill: #168dd9;"></path><path d="M106.05000000000001,106.66666666666667h18.900000000000002v93.33333333333333h-18.900000000000002Z" style="fill: #d190b6;"></path><path d="M127.05000000000001,177.77777777777777h18.900000000000002v22.22222222222223h-18.900000000000002Z" style="fill: #ab5787;"></path><path d="M148.05,84.44444444444446h18.900000000000002v93.33333333333331h-18.900000000000002Z" style="fill: #ab5787;"></path><path d="M148.05,177.77777777777777h18.900000000000002v22.22222222222223h-18.900000000000002Z" style="fill: #51b2e5;"></path><path d="M169.05,173.33333333333334h18.900000000000002v26.666666666666657h-18.900000000000002Z" style="fill: #ab5787;"></path><path d="M190.05,146.66666666666666h18.900000000000002v53.33333333333334h-18.900000000000002Z" style="fill: #ab5787;"></path><path d="M211.05,115.55555555555556h18.900000000000002v84.44444444444444h-18.900000000000002Z" style="fill: #ab5787;"></path><path d="M232.05,155.55555555555554h18.900000000000002v44.44444444444446h-18.900000000000002Z" style="fill: #ab5787;"></path><path d="M253.05,106.66666666666667h18.900000000000002v39.999999999999986h-18.900000000000002Z" style="fill: #ab5787;"></path><path d="M253.05,146.66666666666666h18.900000000000002v53.33333333333334h-18.900000000000002Z" style="fill: #51b2e5;"></path><path d="M274.05,173.33333333333334h18.900000000000002v26.666666666666657h-18.900000000000002Z" style="fill: #ab5787;"></path><path d="M295.05,160h18.900000000000002v40h-18.900000000000002Z" style="fill: #ab5787;"></path><path d="M316.05,4.444444444444457h18.900000000000002v133.33333333333331h-18.900000000000002Z" style="fill: #ab5787;"></path><path d="M316.05,137.77777777777777h18.900000000000002v40h-18.900000000000002Z" style="fill: #51b2e5;"></path><path d="M316.05,177.77777777777777h18.900000000000002v22.22222222222223h-18.900000000000002Z" style="fill: #d190b6;"></path><path d="M337.05,128.88888888888889h18.900000000000002v26.666666666666657h-18.900000000000002Z" style="fill: #ab5787;"></path><path d="M337.05,155.55555555555554h18.900000000000002v22.22222222222223h-18.900000000000002Z" style="fill: #703c5c;"></path><path d="M337.05,177.77777777777777h18.900000000000002v22.22222222222223h-18.900000000000002Z" style="fill: #d190b6;"></path><path d="M358.05,168.88888888888889h18.900000000000002v31.111111111111114h-18.900000000000002Z" style="fill: #ab5787;"></path><path d="M379.05,57.77777777777777h18.900000000000002v57.777777777777786h-18.900000000000002Z" style="fill: #ab5787;"></path><path d="M379.05,115.55555555555556h18.900000000000002v26.66666666666667h-18.900000000000002Z" style="fill: #51b2e5;"></path><path d="M379.05,142.22222222222223h18.900000000000002v26.666666666666657h-18.900000000000002Z" style="fill: #703c5c;"></path><path d="M379.05,168.88888888888889h18.900000000000002v31.111111111111114h-18.900000000000002Z" style="fill: #168dd9;"></path><path d="M400.05,177.77777777777777h18.900000000000002v22.22222222222223h-18.900000000000002Z" style="fill: #ab5787;"></path><path d="M421.05,168.88888888888889h18.900000000000002v31.111111111111114h-18.900000000000002Z" style="fill: #ab5787;"></path><path d="M442.05,142.22222222222223h18.900000000000002v57.77777777777777h-18.900000000000002Z" style="fill: #ab5787;"></path><path d="M463.05,177.77777777777777h18.900000000000002v22.22222222222223h-18.900000000000002Z" style="fill: #ab5787;"></path><path d="M484.05,168.88888888888889h18.900000000000002v31.111111111111114h-18.900000000000002Z" style="fill: #d190b6;"></path><path d="M505.05,151.11111111111111h18.900000000000002v48.888888888888886h-18.900000000000002Z" style="fill: #ab5787;"></path><path d="M526.05,177.77777777777777h18.900000000000002v22.22222222222223h-18.900000000000002Z" style="fill: #ab5787;"></path><path d="M547.05,35.55555555555557h18.900000000000002v75.55555555555554h-18.900000000000002Z" style="fill: #ab5787;"></path><path d="M547.05,111.11111111111111h18.900000000000002v35.55555555555554h-18.900000000000002Z" style="fill: #51b2e5;"></path><path d="M547.05,146.66666666666666h18.900000000000002v31.111111111111114h-18.900000000000002Z" style="fill: #703c5c;"></path><path d="M547.05,177.77777777777777h18.900000000000002v22.22222222222223h-18.900000000000002Z" style="fill: #d190b6;"></path></g><g class="mark-group role-legend"><g transform="translate(585,0)"><path class="background" d="M0,0h59v94h-59Z" style="pointer-events: none; fill: none;"></path><g><g class="mark-group role-legend-entry"><g transform="translate(1,17)"><path class="background" d="M0,0h0v0h0Z" style="pointer-events: none; fill: none;"></path><g><g class="mark-group role-scope"><g transform="translate(0,0)"><path class="background" d="M0,0h56.36666488647461v11.5h-56.36666488647461Z" style="pointer-events: none; fill: none; opacity: 1;"></path><g><g class="mark-symbol role-legend-symbol" style="pointer-events: none;"><path transform="translate(5.5,5.5)" d="M-2.7386127875258306,-2.7386127875258306h5.477225575051661v5.477225575051661h-5.477225575051661Z" style="fill: #ab5787; stroke-width: 1.5; opacity: 1;"></path></g><g class="mark-text role-legend-label" style="pointer-events: none;"><text text-anchor="start" transform="translate(15,8.5)" style="font-family: sans-serif; font-size: 11px; fill: #000; opacity: 1;">06-2020</text></g></g></g><g transform="translate(0,16)"><path class="background" d="M0,0h56.36666488647461v11.5h-56.36666488647461Z" style="pointer-events: none; fill: none; opacity: 1;"></path><g><g class="mark-symbol role-legend-symbol" style="pointer-events: none;"><path transform="translate(5.5,5.5)" d="M-2.7386127875258306,-2.7386127875258306h5.477225575051661v5.477225575051661h-5.477225575051661Z" style="fill: #51b2e5; stroke-width: 1.5; opacity: 1;"></path></g><g class="mark-text role-legend-label" style="pointer-events: none;"><text text-anchor="start" transform="translate(15,8.5)" style="font-family: sans-serif; font-size: 11px; fill: #000; opacity: 1;">07-2020</text></g></g></g><g transform="translate(0,32)"><path class="background" d="M0,0h56.36666488647461v11.5h-56.36666488647461Z" style="pointer-events: none; fill: none; opacity: 1;"></path><g><g class="mark-symbol role-legend-symbol" style="pointer-events: none;"><path transform="translate(5.5,5.5)" d="M-2.7386127875258306,-2.7386127875258306h5.477225575051661v5.477225575051661h-5.477225575051661Z" style="fill: #703c5c; stroke-width: 1.5; opacity: 1;"></path></g><g class="mark-text role-legend-label" style="pointer-events: none;"><text text-anchor="start" transform="translate(15,8.5)" style="font-family: sans-serif; font-size: 11px; fill: #000; opacity: 1;">08-2020</text></g></g></g><g transform="translate(0,48)"><path class="background" d="M0,0h56.36666488647461v11.5h-56.36666488647461Z" style="pointer-events: none; fill: none; opacity: 1;"></path><g><g class="mark-symbol role-legend-symbol" style="pointer-events: none;"><path transform="translate(5.5,5.5)" d="M-2.7386127875258306,-2.7386127875258306h5.477225575051661v5.477225575051661h-5.477225575051661Z" style="fill: #168dd9; stroke-width: 1.5; opacity: 1;"></path></g><g class="mark-text role-legend-label" style="pointer-events: none;"><text text-anchor="start" transform="translate(15,8.5)" style="font-family: sans-serif; font-size: 11px; fill: #000; opacity: 1;">09-2020</text></g></g></g><g transform="translate(0,64)"><path class="background" d="M0,0h56.36666488647461v11.5h-56.36666488647461Z" style="pointer-events: none; fill: none; opacity: 1;"></path><g><g class="mark-symbol role-legend-symbol" style="pointer-events: none;"><path transform="translate(5.5,5.5)" d="M-2.7386127875258306,-2.7386127875258306h5.477225575051661v5.477225575051661h-5.477225575051661Z" style="fill: #d190b6; stroke-width: 1.5; opacity: 1;"></path></g><g class="mark-text role-legend-label" style="pointer-events: none;"><text text-anchor="start" transform="translate(15,8.5)" style="font-family: sans-serif; font-size: 11px; fill: #000; opacity: 1;">10-2020</text></g></g></g></g></g></g></g><g class="mark-text role-legend-title" style="pointer-events: none;"><text text-anchor="start" transform="translate(1,10)" style="font-family: sans-serif; font-size: 11px; font-weight: bold; fill: #000; opacity: 1;">month</text></g></g></g></g><g class="mark-group role-axis"><g transform="translate(0.5,200.5)"><path class="background" d="M0,0h0v0h0Z" style="pointer-events: none; fill: none;"></path><g><g class="mark-rule role-axis-tick" style="pointer-events: none;"><line transform="translate(10,0)" x2="0" y2="10" style="fill: none; stroke: #979797; stroke-width: 0.2; opacity: 1;"></line><line transform="translate(31,0)" x2="0" y2="10" style="fill: none; stroke: #979797; stroke-width: 0.2; opacity: 1;"></line><line transform="translate(52,0)" x2="0" y2="10" style="fill: none; stroke: #979797; stroke-width: 0.2; opacity: 1;"></line><line transform="translate(73,0)" x2="0" y2="10" style="fill: none; stroke: #979797; stroke-width: 0.2; opacity: 1;"></line><line transform="translate(94,0)" x2="0" y2="10" style="fill: none; stroke: #979797; stroke-width: 0.2; opacity: 1;"></line><line transform="translate(115,0)" x2="0" y2="10" style="fill: none; stroke: #979797; stroke-width: 0.2; opacity: 1;"></line><line transform="translate(136,0)" x2="0" y2="10" style="fill: none; stroke: #979797; stroke-width: 0.2; opacity: 1;"></line><line transform="translate(157,0)" x2="0" y2="10" style="fill: none; stroke: #979797; stroke-width: 0.2; opacity: 1;"></line><line transform="translate(178,0)" x2="0" y2="10" style="fill: none; stroke: #979797; stroke-width: 0.2; opacity: 1;"></line><line transform="translate(199,0)" x2="0" y2="10" style="fill: none; stroke: #979797; stroke-width: 0.2; opacity: 1;"></line><line transform="translate(220,0)" x2="0" y2="10" style="fill: none; stroke: #979797; stroke-width: 0.2; opacity: 1;"></line><line transform="translate(241,0)" x2="0" y2="10" style="fill: none; stroke: #979797; stroke-width: 0.2; opacity: 1;"></line><line transform="translate(262,0)" x2="0" y2="10" style="fill: none; stroke: #979797; stroke-width: 0.2; opacity: 1;"></line><line transform="translate(283,0)" x2="0" y2="10" style="fill: none; stroke: #979797; stroke-width: 0.2; opacity: 1;"></line><line transform="translate(304,0)" x2="0" y2="10" style="fill: none; stroke: #979797; stroke-width: 0.2; opacity: 1;"></line><line transform="translate(325,0)" x2="0" y2="10" style="fill: none; stroke: #979797; stroke-width: 0.2; opacity: 1;"></line><line transform="translate(346,0)" x2="0" y2="10" style="fill: none; stroke: #979797; stroke-width: 0.2; opacity: 1;"></line><line transform="translate(367,0)" x2="0" y2="10" style="fill: none; stroke: #979797; stroke-width: 0.2; opacity: 1;"></line><line transform="translate(388,0)" x2="0" y2="10" style="fill: none; stroke: #979797; stroke-width: 0.2; opacity: 1;"></line><line transform="translate(409,0)" x2="0" y2="10" style="fill: none; stroke: #979797; stroke-width: 0.2; opacity: 1;"></line><line transform="translate(430,0)" x2="0" y2="10" style="fill: none; stroke: #979797; stroke-width: 0.2; opacity: 1;"></line><line transform="translate(451,0)" x2="0" y2="10" style="fill: none; stroke: #979797; stroke-width: 0.2; opacity: 1;"></line><line transform="translate(472,0)" x2="0" y2="10" style="fill: none; stroke: #979797; stroke-width: 0.2; opacity: 1;"></line><line transform="translate(493,0)" x2="0" y2="10" style="fill: none; stroke: #979797; stroke-width: 0.2; opacity: 1;"></line><line transform="translate(514,0)" x2="0" y2="10" style="fill: none; stroke: #979797; stroke-width: 0.2; opacity: 1;"></line><line transform="translate(535,0)" x2="0" y2="10" style="fill: none; stroke: #979797; stroke-width: 0.2; opacity: 1;"></line><line transform="translate(556,0)" x2="0" y2="10" style="fill: none; stroke: #979797; stroke-width: 0.2; opacity: 1;"></line></g><g class="mark-text role-axis-label" style="pointer-events: none;"><text text-anchor="end" transform="translate(9.500000000000012,12) rotate(270) translate(0,3)" style="font-family: sans-serif; font-size: 10px; fill: #979797; opacity: 1;">Arlington Heights</text><text text-anchor="end" transform="translate(30.500000000000014,12) rotate(270) translate(0,3)" style="font-family: sans-serif; font-size: 10px; fill: #979797; opacity: 1;">Berwyn</text><text text-anchor="end" transform="translate(51.500000000000014,12) rotate(270) translate(0,3)" style="font-family: sans-serif; font-size: 10px; fill: #979797; opacity: 1;">Bridgeview</text><text text-anchor="end" transform="translate(72.50000000000001,12) rotate(270) translate(0,3)" style="font-family: sans-serif; font-size: 10px; fill: #979797; opacity: 1;">Buffalo Grove</text><text text-anchor="end" transform="translate(93.50000000000001,12) rotate(270) translate(0,3)" style="font-family: sans-serif; font-size: 10px; fill: #979797; opacity: 1;">CRESTWOOD</text><text text-anchor="end" transform="translate(114.50000000000001,12) rotate(270) translate(0,3)" style="font-family: sans-serif; font-size: 10px; fill: #979797; opacity: 1;">Cicero</text><text text-anchor="end" transform="translate(135.5,12) rotate(270) translate(0,3)" style="font-family: sans-serif; font-size: 10px; fill: #979797; opacity: 1;">Country Club Hills</text><text text-anchor="end" transform="translate(156.5,12) rotate(270) translate(0,3)" style="font-family: sans-serif; font-size: 10px; fill: #979797; opacity: 1;">Des Plaines</text><text text-anchor="end" transform="translate(177.5,12) rotate(270) translate(0,3)" style="font-family: sans-serif; font-size: 10px; fill: #979797; opacity: 1;">Dolton</text><text text-anchor="end" transform="translate(198.5,12) rotate(270) translate(0,3)" style="font-family: sans-serif; font-size: 10px; fill: #979797; opacity: 1;">Elk Grove Village</text><text text-anchor="end" transform="translate(219.5,12) rotate(270) translate(0,3)" style="font-family: sans-serif; font-size: 10px; fill: #979797; opacity: 1;">Evanston</text><text text-anchor="end" transform="translate(240.5,12) rotate(270) translate(0,3)" style="font-family: sans-serif; font-size: 10px; fill: #979797; opacity: 1;">Glenview</text><text text-anchor="end" transform="translate(261.5,12) rotate(270) translate(0,3)" style="font-family: sans-serif; font-size: 10px; fill: #979797; opacity: 1;">Hoffman Estates</text><text text-anchor="end" transform="translate(282.5,12) rotate(270) translate(0,3)" style="font-family: sans-serif; font-size: 10px; fill: #979797; opacity: 1;">Long Grove</text><text text-anchor="end" transform="translate(303.5,12) rotate(270) translate(0,3)" style="font-family: sans-serif; font-size: 10px; fill: #979797; opacity: 1;">Melrose Park</text><text text-anchor="end" transform="translate(324.5,12) rotate(270) translate(0,3)" style="font-family: sans-serif; font-size: 10px; fill: #979797; opacity: 1;">Niles</text><text text-anchor="end" transform="translate(345.5,12) rotate(270) translate(0,3)" style="font-family: sans-serif; font-size: 10px; fill: #979797; opacity: 1;">Norridge</text><text text-anchor="end" transform="translate(366.5,12) rotate(270) translate(0,3)" style="font-family: sans-serif; font-size: 10px; fill: #979797; opacity: 1;">Northbrook</text><text text-anchor="end" transform="translate(387.5,12) rotate(270) translate(0,3)" style="font-family: sans-serif; font-size: 10px; fill: #979797; opacity: 1;">Oak Lawn</text><text text-anchor="end" transform="translate(408.5,12) rotate(270) translate(0,3)" style="font-family: sans-serif; font-size: 10px; fill: #979797; opacity: 1;">Oak Park</text><text text-anchor="end" transform="translate(429.5,12) rotate(270) translate(0,3)" style="font-family: sans-serif; font-size: 10px; fill: #979797; opacity: 1;">Palatine</text><text text-anchor="end" transform="translate(450.5,12) rotate(270) translate(0,3)" style="font-family: sans-serif; font-size: 10px; fill: #979797; opacity: 1;">Palos Heights</text><text text-anchor="end" transform="translate(471.5,12) rotate(270) translate(0,3)" style="font-family: sans-serif; font-size: 10px; fill: #979797; opacity: 1;">Palos Hills</text><text text-anchor="end" transform="translate(492.5,12) rotate(270) translate(0,3)" style="font-family: sans-serif; font-size: 10px; fill: #979797; opacity: 1;">Rolling Meadows</text><text text-anchor="end" transform="translate(513.5,12) rotate(270) translate(0,3)" style="font-family: sans-serif; font-size: 10px; fill: #979797; opacity: 1;">Skokie</text><text text-anchor="end" transform="translate(534.5,12) rotate(270) translate(0,3)" style="font-family: sans-serif; font-size: 10px; fill: #979797; opacity: 1;">Streamwood</text><text text-anchor="end" transform="translate(555.5,12) rotate(270) translate(0,3)" style="font-family: sans-serif; font-size: 10px; fill: #979797; opacity: 1;">Wheeling</text></g><g class="mark-rule role-axis-domain" style="pointer-events: none;"><line transform="translate(0,0)" x2="567" y2="0" style="fill: none; stroke: #979797; stroke-width: 0.5; opacity: 1;"></line></g><g class="mark-text role-axis-title" style="pointer-events: none;"><text text-anchor="middle" transform="translate(283.5,106.03333282470703)" style="font-family: sans-serif; font-size: 11px; font-weight: bold; fill: #979797; opacity: 1;">residence_city</text></g></g></g></g><g class="mark-group role-axis"><g transform="translate(0.5,0.5)"><path class="background" d="M0,0h0v0h0Z" style="pointer-events: none; fill: none;"></path><g><g class="mark-rule role-axis-tick" style="pointer-events: none;"><line transform="translate(0,200)" x2="0" y2="0" style="fill: none; stroke: #979797; stroke-width: 0.2; opacity: 1;"></line><line transform="translate(0,156)" x2="0" y2="0" style="fill: none; stroke: #979797; stroke-width: 0.2; opacity: 1;"></line><line transform="translate(0,111)" x2="0" y2="0" style="fill: none; stroke: #979797; stroke-width: 0.2; opacity: 1;"></line><line transform="translate(0,67)" x2="0" y2="0" style="fill: none; stroke: #979797; stroke-width: 0.2; opacity: 1;"></line><line transform="translate(0,22)" x2="0" y2="0" style="fill: none; stroke: #979797; stroke-width: 0.2; opacity: 1;"></line></g><g class="mark-text role-axis-label" style="pointer-events: none;"><text text-anchor="end" transform="translate(-2,203)" style="font-family: sans-serif; font-size: 10px; fill: #979797; opacity: 1;">0</text><text text-anchor="end" transform="translate(-2,158.55555555555554)" style="font-family: sans-serif; font-size: 10px; fill: #979797; opacity: 1;">10</text><text text-anchor="end" transform="translate(-2,114.11111111111111)" style="font-family: sans-serif; font-size: 10px; fill: #979797; opacity: 1;">20</text><text text-anchor="end" transform="translate(-2,69.66666666666669)" style="font-family: sans-serif; font-size: 10px; fill: #979797; opacity: 1;">30</text><text text-anchor="end" transform="translate(-2,25.22222222222223)" style="font-family: sans-serif; font-size: 10px; fill: #979797; opacity: 1;">40</text></g><g class="mark-text role-axis-title" style="pointer-events: none;"><text text-anchor="middle" transform="translate(-34,100) rotate(-90) translate(0,-2)" style="font-family: sans-serif; font-size: 11px; font-weight: bold; fill: #979797; opacity: 1;">count</text></g></g></g></g></g></g></g></g></svg>