<svg class="marks" width="1149" height="252" viewBox="0 0 1149 252" version="1.1" xmlns="http://www.w3.org/2000/svg" xmlns:xlink="http://www.w3.org/1999/xlink"><rect width="1149" height="252" style="fill: #f9f9f9;"></rect><g transform="translate(52,5)"><g class="mark-group role-frame root"><g transform="translate(0,0)"><path class="background" d="M0.5,0.5h1092v200h-1092Z" style="fill: none; stroke: #ddd;"></path><g><g class="mark-group role-axis"><g transform="translate(0.5,0.5)"><path class="background" d="M0,0h0v0h0Z" style="pointer-events: none; fill: none;"></path><g><g class="mark-rule role-axis-grid" style="pointer-events: none;"><line transform="translate(0,200)" x2="1092" y2="0" style="fill: none; stroke: #ddd; stroke-width: 0.2; opacity: 1;"></line><line transform="translate(0,138)" x2="1092" y2="0" style="fill: none; stroke: #ddd; stroke-width: 0.2; opacity: 1;"></line><line transform="translate(0,75)" x2="1092" y2="0" style="fill: none; stroke: #ddd; stroke-width: 0.2; opacity: 1;"></line><line transform="translate(0,13)" x2="1092" y2="0" style="fill: none; stroke: #ddd; stroke-width: 0.2; opacity: 1;"></line></g></g></g></g><g class="mark-rect role-mark marks"><path d="M1.0500000000000682,157.5h18.900000000000002v42.5h-18.900000000000002Z" style="fill: #4c78a8;"></path><path d="M22.050000000000068,147.5h18.900000000000002v52.5h-18.900000000000002Z" style="fill: #4c78a8;"></path><path d="M43.05000000000007,166.25h18.900000000000002v33.75h-18.900000000000002Z" style="fill: #4c78a8;"></path><path d="M64.05000000000007,156.25h18.900000000000002v43.75h-18.900000000000002Z" style="fill: #4c78a8;"></path><path d="M85.05000000000007,157.5h18.900000000000002v42.5h-18.900000000000002Z" style="fill: #4c78a8;"></path><path d="M106.05000000000007,140h18.900000000000002v60h-18.900000000000002Z" style="fill: #4c78a8;"></path><path d="M127.05000000000007,145h18.900000000000002v55h-18.900000000000002Z" style="fill: #4c78a8;"></path><path d="M148.05000000000007,123.75h18.900000000000002v76.25h-18.900000000000002Z" style="fill: #4c78a8;"></path><path d="M169.05000000000007,155h18.900000000000002v45h-18.900000000000002Z" style="fill: #4c78a8;"></path><path d="M190.05000000000007,122.5h18.900000000000002v77.5h-18.900000000000002Z" style="fill: #4c78a8;"></path><path d="M211.05000000000007,112.5h18.900000000000002v87.5h-18.900000000000002Z" style="fill: #4c78a8;"></path><path d="M232.05000000000007,116.25h18.900000000000002v83.75h-18.900000000000002Z" style="fill: #4c78a8;"></path><path d="M253.05000000000007,105h18.900000000000002v95h-18.900000000000002Z" style="fill: #4c78a8;"></path><path d="M274.05000000000007,85.00000000000001h18.900000000000002v114.99999999999999h-18.900000000000002Z" style="fill: #4c78a8;"></path><path d="M295.05000000000007,85.00000000000001h18.900000000000002v114.99999999999999h-18.900000000000002Z" style="fill: #4c78a8;"></path><path d="M316.05000000000007,61.25h18.900000000000002v138.75h-18.900000000000002Z" style="fill: #4c78a8;"></path><path d="M337.05000000000007,62.5h18.900000000000002v137.5h-18.900000000000002Z" style="fill: #4c78a8;"></path><path d="M358.05000000000007,52.5h18.900000000000002v147.5h-18.900000000000002Z" style="fill: #4c78a8;"></path><path d="M379.05000000000007,56.25h18.900000000000002v143.75h-18.900000000000002Z" style="fill: #4c78a8;"></path><path d="M400.05000000000007,56.25h18.900000000000002v143.75h-18.900000000000002Z" style="fill: #4c78a8;"></path><path d="M421.05000000000007,45h18.900000000000002v155h-18.900000000000002Z" style="fill: #4c78a8;"></path><path d="M442.05000000000007,33.75h18.900000000000002v166.25h-18.900000000000002Z" style="fill: #4c78a8;"></path><path d="M463.05000000000007,36.25h18.900000000000002v163.75h-18.900000000000002Z" style="fill: #4c78a8;"></path><path d="M484.05000000000007,31.25h18.900000000000002v168.75h-18.900000000000002Z" style="fill: #4c78a8;"></path><path d="M505.05000000000007,8.75h18.900000000000002v191.25h-18.900000000000002Z" style="fill: #4c78a8;"></path><path d="M526.0500000000001,23.75h18.900000000000002v176.25h-18.900000000000002Z" style="fill: #4c78a8;"></path><path d="M547.0500000000001,8.75h18.900000000000002v191.25h-18.900000000000002Z" style="fill: #4c78a8;"></path><path d="M568.0500000000001,25h18.900000000000002v175h-18.900000000000002Z" style="fill: #4c78a8;"></path><path d="M589.0500000000001,60h18.900000000000002v140h-18.900000000000002Z" style="fill: #4c78a8;"></path><path d="M610.0500000000001,38.75h18.900000000000002v161.25h-18.900000000000002Z" style="fill: #4c78a8;"></path><path d="M631.0500000000001,3.75h18.900000000000002v196.25h-18.900000000000002Z" style="fill: #4c78a8;"></path><path d="M652.0500000000001,35h18.900000000000002v165h-18.900000000000002Z" style="fill: #4c78a8;"></path><path d="M673.0500000000001,36.25h18.900000000000002v163.75h-18.900000000000002Z" style="fill: #4c78a8;"></path><path d="M694.0500000000001,32.5h18.900000000000002v167.5h-18.900000000000002Z" style="fill: #4c78a8;"></path><path d="M715.0500000000001,30h18.900000000000002v170h-18.900000000000002Z" style="fill: #4c78a8;"></path><path d="M736.0500000000001,32.5h18.900000000000002v167.5h-18.900000000000002Z" style="fill: #4c78a8;"></path><path d="M757.0500000000001,33.75h18.900000000000002v166.25h-18.900000000000002Z" style="fill: #4c78a8;"></path><path d="M778.0500000000001,26.25h18.900000000000002v173.75h-18.900000000000002Z" style="fill: #4c78a8;"></path><path d="M799.0500000000001,30h18.900000000000002v170h-18.900000000000002Z" style="fill: #4c78a8;"></path><path d="M820.0500000000001,33.75h18.900000000000002v166.25h-18.900000000000002Z" style="fill: #4c78a8;"></path><path d="M841.0500000000001,8.75h18.900000000000002v191.25h-18.900000000000002Z" style="fill: #4c78a8;"></path><path d="M862.0500000000001,30h18.900000000000002v170h-18.900000000000002Z" style="fill: #4c78a8;"></path><path d="M883.0500000000001,37.5h18.900000000000002v162.5h-18.900000000000002Z" style="fill: #4c78a8;"></path><path d="M904.0500000000001,5h18.900000000000002v195h-18.900000000000002Z" style="fill: #4c78a8;"></path><path d="M925.0500000000001,46.25h18.900000000000002v153.75h-18.900000000000002Z" style="fill: #4c78a8;"></path><path d="M946.0500000000001,75h18.900000000000002v125h-18.900000000000002Z" style="fill: #4c78a8;"></path><path d="M967.0500000000001,86.25h18.900000000000002v113.75h-18.900000000000002Z" style="fill: #4c78a8;"></path><path d="M988.0500000000001,107.5h18.900000000000002v92.5h-18.900000000000002Z" style="fill: #4c78a8;"></path><path d="M1009.0500000000001,131.25h18.900000000000002v68.75h-18.900000000000002Z" style="fill: #4c78a8;"></path><path d="M1030.0500000000002,136.25h18.900000000000002v63.75h-18.900000000000002Z" style="fill: #4c78a8;"></path><path d="M1051.0500000000002,138.75h18.900000000000002v61.25h-18.900000000000002Z" style="fill: #4c78a8;"></path><path d="M1072.0500000000002,155h18.900000000000002v45h-18.900000000000002Z" style="fill: #4c78a8;"></path></g><g class="mark-group role-axis"><g transform="translate(0.5,200.5)"><path class="background" d="M0,0h0v0h0Z" style="pointer-events: none; fill: none;"></path><g><g class="mark-rule role-axis-tick" style="pointer-events: none;"><line transform="translate(10,0)" x2="0" y2="10" style="fill: none; stroke: #979797; stroke-width: 0.2; opacity: 1;"></line><line transform="translate(31,0)" x2="0" y2="10" style="fill: none; stroke: #979797; stroke-width: 0.2; opacity: 1;"></line><line transform="translate(52,0)" x2="0" y2="10" style="fill: none; stroke: #979797; stroke-width: 0.2; opacity: 1;"></line><line transform="translate(73,0)" x2="0" y2="10" style="fill: none; stroke: #979797; stroke-width: 0.2; opacity: 1;"></line><line transform="translate(94,0)" x2="0" y2="10" style="fill: none; stroke: #979797; stroke-width: 0.2; opacity: 1;"></line><line transform="translate(115,0)" x2="0" y2="10" style="fill: none; stroke: #979797; stroke-width: 0.2; opacity: 1;"></line><line transform="translate(136,0)" x2="0" y2="10" style="fill: none; stroke: #979797; stroke-width: 0.2; opacity: 1;"></line><line transform="translate(157,0)" x2="0" y2="10" style="fill: none; stroke: #979797; stroke-width: 0.2; opacity: 1;"></line><line transform="translate(178,0)" x2="0" y2="10" style="fill: none; stroke: #979797; stroke-width: 0.2; opacity: 1;"></line><line transform="translate(199,0)" x2="0" y2="10" style="fill: none; stroke: #979797; stroke-width: 0.2; opacity: 1;"></line><line transform="translate(220,0)" x2="0" y2="10" style="fill: none; stroke: #979797; stroke-width: 0.2; opacity: 1;"></line><line transform="translate(241,0)" x2="0" y2="10" style="fill: none; stroke: #979797; stroke-width: 0.2; opacity: 1;"></line><line transform="translate(262,0)" x2="0" y2="10" style="fill: none; stroke: #979797; stroke-width: 0.2; opacity: 1;"></line><line transform="translate(283,0)" x2="0" y2="10" style="fill: none; stroke: #979797; stroke-width: 0.2; opacity: 1;"></line><line transform="translate(304,0)" x2="0" y2="10" style="fill: none; stroke: #979797; stroke-width: 0.2; opacity: 1;"></line><line transform="translate(325,0)" x2="0" y2="10" style="fill: none; stroke: #979797; stroke-width: 0.2; opacity: 1;"></line><line transform="translate(346,0)" x2="0" y2="10" style="fill: none; stroke: #979797; stroke-width: 0.2; opacity: 1;"></line><line transform="translate(367,0)" x2="0" y2="10" style="fill: none; stroke: #979797; stroke-width: 0.2; opacity: 1;"></line><line transform="translate(388,0)" x2="0" y2="10" style="fill: none; stroke: #979797; stroke-width: 0.2; opacity: 1;"></line><line transform="translate(409,0)" x2="0" y2="10" style="fill: none; stroke: #979797; stroke-width: 0.2; opacity: 1;"></line><line transform="translate(430,0)" x2="0" y2="10" style="fill: none; stroke: #979797; stroke-width: 0.2; opacity: 1;"></line><line transform="translate(451,0)" x2="0" y2="10" style="fill: none; stroke: #979797; stroke-width: 0.2; opacity: 1;"></line><line transform="translate(472,0)" x2="0" y2="10" style="fill: none; stroke: #979797; stroke-width: 0.2; opacity: 1;"></line><line transform="translate(493,0)" x2="0" y2="10" style="fill: none; stroke: #979797; stroke-width: 0.2; opacity: 1;"></line><line transform="translate(514,0)" x2="0" y2="10" style="fill: none; stroke: #979797; stroke-width: 0.2; opacity: 1;"></line><line transform="translate(535,0)" x2="0" y2="10" style="fill: none; stroke: #979797; stroke-width: 0.2; opacity: 1;"></line><line transform="translate(556,0)" x2="0" y2="10" style="fill: none; stroke: #979797; stroke-width: 0.2; opacity: 1;"></line><line transform="translate(577,0)" x2="0" y2="10" style="fill: none; stroke: #979797; stroke-width: 0.2; opacity: 1;"></line><line transform="translate(598,0)" x2="0" y2="10" style="fill: none; stroke: #979797; stroke-width: 0.2; opacity: 1;"></line><line transform="translate(619,0)" x2="0" y2="10" style="fill: none; stroke: #979797; stroke-width: 0.2; opacity: 1;"></line><line transform="translate(640,0)" x2="0" y2="10" style="fill: none; stroke: #979797; stroke-width: 0.2; opacity: 1;"></line><line transform="translate(661,0)" x2="0" y2="10" style="fill: none; stroke: #979797; stroke-width: 0.2; opacity: 1;"></line><line transform="translate(682,0)" x2="0" y2="10" style="fill: none; stroke: #979797; stroke-width: 0.2; opacity: 1;"></line><line transform="translate(703,0)" x2="0" y2="10" style="fill: none; stroke: #979797; stroke-width: 0.2; opacity: 1;"></line><line transform="translate(724,0)" x2="0" y2="10" style="fill: none; stroke: #979797; stroke-width: 0.2; opacity: 1;"></line><line transform="translate(745,0)" x2="0" y2="10" style="fill: none; stroke: #979797; stroke-width: 0.2; opacity: 1;"></line><line transform="translate(766,0)" x2="0" y2="10" style="fill: none; stroke: #979797; stroke-width: 0.2; opacity: 1;"></line><line transform="translate(787,0)" x2="0" y2="10" style="fill: none; stroke: #979797; stroke-width: 0.2; opacity: 1;"></line><line transform="translate(808,0)" x2="0" y2="10" style="fill: none; stroke: #979797; stroke-width: 0.2; opacity: 1;"></line><line transform="translate(829,0)" x2="0" y2="10" style="fill: none; stroke: #979797; stroke-width: 0.2; opacity: 1;"></line><line transform="translate(850,0)" x2="0" y2="10" style="fill: none; stroke: #979797; stroke-width: 0.2; opacity: 1;"></line><line transform="translate(871,0)" x2="0" y2="10" style="fill: none; stroke: #979797; stroke-width: 0.2; opacity: 1;"></line><line transform="translate(892,0)" x2="0" y2="10" style="fill: none; stroke: #979797; stroke-width: 0.2; opacity: 1;"></line><line transform="translate(913,0)" x2="0" y2="10" style="fill: none; stroke: #979797; stroke-width: 0.2; opacity: 1;"></line><line transform="translate(934,0)" x2="0" y2="10" style="fill: none; stroke: #979797; stroke-width: 0.2; opacity: 1;"></line><line transform="translate(955,0)" x2="0" y2="10" style="fill: none; stroke: #979797; stroke-width: 0.2; opacity: 1;"></line><line transform="translate(976,0)" x2="0" y2="10" style="fill: none; stroke: #979797; stroke-width: 0.2; opacity: 1;"></line><line transform="translate(997,0)" x2="0" y2="10" style="fill: none; stroke: #979797; stroke-width: 0.2; opacity: 1;"></line><line transform="translate(1018,0)" x2="0" y2="10" style="fill: none; stroke: #979797; stroke-width: 0.2; opacity: 1;"></line><line transform="translate(1039,0)" x2="0" y2="10" style="fill: none; stroke: #979797; stroke-width: 0.2; opacity: 1;"></line><line transform="translate(1060,0)" x2="0" y2="10" style="fill: none; stroke: #979797; stroke-width: 0.2; opacity: 1;"></line><line transform="translate(1081,0)" x2="0" y2="10" style="fill: none; stroke: #979797; stroke-width: 0.2; opacity: 1;"></line></g><g class="mark-text role-axis-label" style="pointer-events: none;"><text text-anchor="end" transform="translate(9.50000000000007,12) rotate(270) translate(0,3)" style="font-family: sans-serif; font-size: 10px; fill: #979797; opacity: 1;">47</text><text text-anchor="end" transform="translate(30.50000000000007,12) rotate(270) translate(0,3)" style="font-family: sans-serif; font-size: 10px; fill: #979797; opacity: 1;">48</text><text text-anchor="end" transform="translate(51.50000000000007,12) rotate(270) translate(0,3)" style="font-family: sans-serif; font-size: 10px; fill: #979797; opacity: 1;">49</text><text text-anchor="end" transform="translate(72.50000000000007,12) rotate(270) translate(0,3)" style="font-family: sans-serif; font-size: 10px; fill: #979797; opacity: 1;">50</text><text text-anchor="end" transform="translate(93.50000000000007,12) rotate(270) translate(0,3)" style="font-family: sans-serif; font-size: 10px; fill: #979797; opacity: 1;">51</text><text text-anchor="end" transform="translate(114.50000000000007,12) rotate(270) translate(0,3)" style="font-family: sans-serif; font-size: 10px; fill: #979797; opacity: 1;">52</text><text text-anchor="end" transform="translate(135.50000000000006,12) rotate(270) translate(0,3)" style="font-family: sans-serif; font-size: 10px; fill: #979797; opacity: 1;">53</text><text text-anchor="end" transform="translate(156.50000000000006,12) rotate(270) translate(0,3)" style="font-family: sans-serif; font-size: 10px; fill: #979797; opacity: 1;">54</text><text text-anchor="end" transform="translate(177.50000000000006,12) rotate(270) translate(0,3)" style="font-family: sans-serif; font-size: 10px; fill: #979797; opacity: 1;">55</text><text text-anchor="end" transform="translate(198.50000000000006,12) rotate(270) translate(0,3)" style="font-family: sans-serif; font-size: 10px; fill: #979797; opacity: 1;">56</text><text text-anchor="end" transform="translate(219.50000000000006,12) rotate(270) translate(0,3)" style="font-family: sans-serif; font-size: 10px; fill: #979797; opacity: 1;">57</text><text text-anchor="end" transform="translate(240.50000000000006,12) rotate(270) translate(0,3)" style="font-family: sans-serif; font-size: 10px; fill: #979797; opacity: 1;">58</text><text text-anchor="end" transform="translate(261.50000000000006,12) rotate(270) translate(0,3)" style="font-family: sans-serif; font-size: 10px; fill: #979797; opacity: 1;">59</text><text text-anchor="end" transform="translate(282.50000000000006,12) rotate(270) translate(0,3)" style="font-family: sans-serif; font-size: 10px; fill: #979797; opacity: 1;">60</text><text text-anchor="end" transform="translate(303.50000000000006,12) rotate(270) translate(0,3)" style="font-family: sans-serif; font-size: 10px; fill: #979797; opacity: 1;">61</text><text text-anchor="end" transform="translate(324.50000000000006,12) rotate(270) translate(0,3)" style="font-family: sans-serif; font-size: 10px; fill: #979797; opacity: 1;">62</text><text text-anchor="end" transform="translate(345.50000000000006,12) rotate(270) translate(0,3)" style="font-family: sans-serif; font-size: 10px; fill: #979797; opacity: 1;">63</text><text text-anchor="end" transform="translate(366.50000000000006,12) rotate(270) translate(0,3)" style="font-family: sans-serif; font-size: 10px; fill: #979797; opacity: 1;">64</text><text text-anchor="end" transform="translate(387.50000000000006,12) rotate(270) translate(0,3)" style="font-family: sans-serif; font-size: 10px; fill: #979797; opacity: 1;">65</text><text text-anchor="end" transform="translate(408.50000000000006,12) rotate(270) translate(0,3)" style="font-family: sans-serif; font-size: 10px; fill: #979797; opacity: 1;">66</text><text text-anchor="end" transform="translate(429.50000000000006,12) rotate(270) translate(0,3)" style="font-family: sans-serif; font-size: 10px; fill: #979797; opacity: 1;">67</text><text text-anchor="end" transform="translate(450.50000000000006,12) rotate(270) translate(0,3)" style="font-family: sans-serif; font-size: 10px; fill: #979797; opacity: 1;">68</text><text text-anchor="end" transform="translate(471.50000000000006,12) rotate(270) translate(0,3)" style="font-family: sans-serif; font-size: 10px; fill: #979797; opacity: 1;">69</text><text text-anchor="end" transform="translate(492.50000000000006,12) rotate(270) translate(0,3)" style="font-family: sans-serif; font-size: 10px; fill: #979797; opacity: 1;">70</text><text text-anchor="end" transform="translate(513.5000000000001,12) rotate(270) translate(0,3)" style="font-family: sans-serif; font-size: 10px; fill: #979797; opacity: 1;">71</text><text text-anchor="end" transform="translate(534.5000000000001,12) rotate(270) translate(0,3)" style="font-family: sans-serif; font-size: 10px; fill: #979797; opacity: 1;">72</text><text text-anchor="end" transform="translate(555.5000000000001,12) rotate(270) translate(0,3)" style="font-family: sans-serif; font-size: 10px; fill: #979797; opacity: 1;">73</text><text text-anchor="end" transform="translate(576.5000000000001,12) rotate(270) translate(0,3)" style="font-family: sans-serif; font-size: 10px; fill: #979797; opacity: 1;">74</text><text text-anchor="end" transform="translate(597.5000000000001,12) rotate(270) translate(0,3)" style="font-family: sans-serif; font-size: 10px; fill: #979797; opacity: 1;">75</text><text text-anchor="end" transform="translate(618.5000000000001,12) rotate(270) translate(0,3)" style="font-family: sans-serif; font-size: 10px; fill: #979797; opacity: 1;">76</text><text text-anchor="end" transform="translate(639.5000000000001,12) rotate(270) translate(0,3)" style="font-family: sans-serif; font-size: 10px; fill: #979797; opacity: 1;">77</text><text text-anchor="end" transform="translate(660.5000000000001,12) rotate(270) translate(0,3)" style="font-family: sans-serif; font-size: 10px; fill: #979797; opacity: 1;">78</text><text text-anchor="end" transform="translate(681.5000000000001,12) rotate(270) translate(0,3)" style="font-family: sans-serif; font-size: 10px; fill: #979797; opacity: 1;">79</text><text text-anchor="end" transform="translate(702.5000000000001,12) rotate(270) translate(0,3)" style="font-family: sans-serif; font-size: 10px; fill: #979797; opacity: 1;">80</text><text text-anchor="end" transform="translate(723.5000000000001,12) rotate(270) translate(0,3)" style="font-family: sans-serif; font-size: 10px; fill: #979797; opacity: 1;">81</text><text text-anchor="end" transform="translate(744.5000000000001,12) rotate(270) translate(0,3)" style="font-family: sans-serif; font-size: 10px; fill: #979797; opacity: 1;">82</text><text text-anchor="end" transform="translate(765.5000000000001,12) rotate(270) translate(0,3)" style="font-family: sans-serif; font-size: 10px; fill: #979797; opacity: 1;">83</text><text text-anchor="end" transform="translate(786.5000000000001,12) rotate(270) translate(0,3)" style="font-family: sans-serif; font-size: 10px; fill: #979797; opacity: 1;">84</text><text text-anchor="end" transform="translate(807.5000000000001,12) rotate(270) translate(0,3)" style="font-family: sans-serif; font-size: 10px; fill: #979797; opacity: 1;">85</text><text text-anchor="end" transform="translate(828.5000000000001,12) rotate(270) translate(0,3)" style="font-family: sans-serif; font-size: 10px; fill: #979797; opacity: 1;">86</text><text text-anchor="end" transform="translate(849.5000000000001,12) rotate(270) translate(0,3)" style="font-family: sans-serif; font-size: 10px; fill: #979797; opacity: 1;">87</text><text text-anchor="end" transform="translate(870.5000000000001,12) rotate(270) translate(0,3)" style="font-family: sans-serif; font-size: 10px; fill: #979797; opacity: 1;">88</text><text text-anchor="end" transform="translate(891.5000000000001,12) rotate(270) translate(0,3)" style="font-family: sans-serif; font-size: 10px; fill: #979797; opacity: 1;">89</text><text text-anchor="end" transform="translate(912.5000000000001,12) rotate(270) translate(0,3)" style="font-family: sans-serif; font-size: 10px; fill: #979797; opacity: 1;">90</text><text text-anchor="end" transform="translate(933.5000000000001,12) rotate(270) translate(0,3)" style="font-family: sans-serif; font-size: 10px; fill: #979797; opacity: 1;">91</text><text text-anchor="end" transform="translate(954.5000000000001,12) rotate(270) translate(0,3)" style="font-family: sans-serif; font-size: 10px; fill: #979797; opacity: 1;">92</text><text text-anchor="end" transform="translate(975.5000000000001,12) rotate(270) translate(0,3)" style="font-family: sans-serif; font-size: 10px; fill: #979797; opacity: 1;">93</text><text text-anchor="end" transform="translate(996.5000000000001,12) rotate(270) translate(0,3)" style="font-family: sans-serif; font-size: 10px; fill: #979797; opacity: 1;">94</text><text text-anchor="end" transform="translate(1017.5000000000001,12) rotate(270) translate(0,3)" style="font-family: sans-serif; font-size: 10px; fill: #979797; opacity: 1;">95</text><text text-anchor="end" transform="translate(1038.5000000000002,12) rotate(270) translate(0,3)" style="font-family: sans-serif; font-size: 10px; fill: #979797; opacity: 1;">96</text><text text-anchor="end" transform="translate(1059.5000000000002,12) rotate(270) translate(0,3)" style="font-family: sans-serif; font-size: 10px; fill: #979797; opacity: 1;">97</text><text text-anchor="end" transform="translate(1080.5000000000002,12) rotate(270) translate(0,3)" style="font-family: sans-serif; font-size: 10px; fill: #979797; opacity: 1;">98</text></g><g class="mark-rule role-axis-domain" style="pointer-events: none;"><line transform="translate(0,0)" x2="1092" y2="0" style="fill: none; stroke: #979797; stroke-width: 0.5; opacity: 1;"></line></g><g class="mark-text role-axis-title" style="pointer-events: none;"><text text-anchor="middle" transform="translate(546,37.13333320617676)" style="font-family: sans-serif; font-size: 11px; font-weight: bold; fill: #979797; opacity: 1;">age</text></g></g></g></g><g class="mark-group role-axis"><g transform="translate(0.5,0.5)"><path class="background" d="M0,0h0v0h0Z" style="pointer-events: none; fill: none;"></path><g><g class="mark-rule role-axis-tick" style="pointer-events: none;"><line transform="translate(0,200)" x2="0" y2="0" style="fill: none; stroke: #979797; stroke-width: 0.2; opacity: 1;"></line><line transform="translate(0,138)" x2="0" y2="0" style="fill: none; stroke: #979797; stroke-width: 0.2; opacity: 1;"></line><line transform="translate(0,75)" x2="0" y2="0" style="fill: none; stroke: #979797; stroke-width: 0.2; opacity: 1;"></line><line transform="translate(0,13)" x2="0" y2="0" style="fill: none; stroke: #979797; stroke-width: 0.2; opacity: 1;"></line></g><g class="mark-text role-axis-label" style="pointer-events: none;"><text text-anchor="end" transform="translate(-2,203)" style="font-family: sans-serif; font-size: 10px; fill: #979797; opacity: 1;">0</text><text text-anchor="end" transform="translate(-2,140.5)" style="font-family: sans-serif; font-size: 10px; fill: #979797; opacity: 1;">50</text><text text-anchor="end" transform="translate(-2,78)" style="font-family: sans-serif; font-size: 10px; fill: #979797; opacity: 1;">100</text><text text-anchor="end" transform="translate(-2,15.5)" style="font-family: sans-serif; font-size: 10px; fill: #979797; opacity: 1;">150</text></g><g class="mark-text role-axis-title" style="pointer-events: none;"><text text-anchor="middle" transform="translate(-34,100) rotate(-90) translate(0,-2)" style="font-family: sans-serif; font-size: 11px; font-weight: bold; fill: #979797; opacity: 1;">count</text></g></g></g></g></g></g></g></g></svg>